<svg width="1000" height="1000" viewBox="0 0 1000 1000" fill="none" xmlns="http://www.w3.org/2000/svg">
<g clip-path="url(#clip0_996_9860)">
<rect width="1000" height="1000" fill="#CEE3AB"/>
<path fill-rule="evenodd" clip-rule="evenodd" d="M164.294 104.25C192.224 104.25 214.867 82.1248 214.867 54.8317C214.867 27.5385 192.224 5.41306 164.294 5.41306C136.363 5.41306 113.72 27.5385 113.72 54.8317C113.72 82.1248 136.363 104.25 164.294 104.25ZM164.294 113.663C197.545 113.663 224.5 87.3235 224.5 54.8317C224.5 22.3398 197.545 -4 164.294 -4C131.043 -4 104.087 22.3398 104.087 54.8317C104.087 87.3235 131.043 113.663 164.294 113.663Z" fill="#E7F3EC"/>
<path d="M143.951 86.1717V23.4912H164.43C172.579 23.4912 178.718 25.1502 182.845 28.4683C186.973 31.6827 189.037 36.5043 189.037 42.933C189.037 46.9769 188.19 50.6061 186.497 53.8205C184.803 57.0349 182.104 59.5753 178.4 61.4417C174.696 63.2044 169.775 64.0858 163.636 64.0858H158.238V86.1717H143.951ZM158.238 52.7317H162.366C165.012 52.7317 167.235 52.4207 169.034 51.7985C170.833 51.1764 172.156 50.1913 173.003 48.8434C173.955 47.3917 174.431 45.5253 174.431 43.2441C174.431 40.6519 173.532 38.5781 171.733 37.0227C170.039 35.4674 167.393 34.6897 163.795 34.6897H158.238V52.7317Z" fill="#E7F3EC"/>
<path d="M-15.5 58.4058V47.4092H16.3551V58.4058H-15.5Z" fill="#E7F3EC"/>
<path d="M21.4935 58.4058V47.4092H53.3486V58.4058H21.4935Z" fill="#E7F3EC"/>
<path d="M58.4869 58.4058V47.4092H90.342V58.4058H58.4869Z" fill="#E7F3EC"/>
<path fill-rule="evenodd" clip-rule="evenodd" d="M421.294 104.25C449.224 104.25 471.867 82.1248 471.867 54.8317C471.867 27.5385 449.224 5.41306 421.294 5.41306C393.363 5.41306 370.72 27.5385 370.72 54.8317C370.72 82.1248 393.363 104.25 421.294 104.25ZM421.294 113.663C454.545 113.663 481.5 87.3235 481.5 54.8317C481.5 22.3398 454.545 -4 421.294 -4C388.043 -4 361.087 22.3398 361.087 54.8317C361.087 87.3235 388.043 113.663 421.294 113.663Z" fill="#E7F3EC"/>
<path d="M400.95 86.1717V23.4912H421.429C429.579 23.4912 435.717 25.1502 439.845 28.4683C443.972 31.6827 446.036 36.5043 446.036 42.933C446.036 46.9769 445.189 50.6061 443.496 53.8205C441.803 57.0349 439.104 59.5753 435.4 61.4417C431.695 63.2044 426.774 64.0858 420.636 64.0858H415.238V86.1717H400.95ZM415.238 52.7317H419.366C422.011 52.7317 424.234 52.4207 426.033 51.7985C427.832 51.1764 429.155 50.1913 430.002 48.8434C430.955 47.3917 431.431 45.5253 431.431 43.2441C431.431 40.6519 430.531 38.5781 428.732 37.0227C427.039 35.4674 424.393 34.6897 420.794 34.6897H415.238V52.7317Z" fill="#E7F3EC"/>
<path d="M241.5 58.4058V47.4092H273.355V58.4058H241.5Z" fill="#E7F3EC"/>
<path d="M278.493 58.4058V47.4092H310.349V58.4058H278.493Z" fill="#E7F3EC"/>
<path d="M315.487 58.4058V47.4092H347.342V58.4058H315.487Z" fill="#E7F3EC"/>
<path fill-rule="evenodd" clip-rule="evenodd" d="M678.294 104.25C706.224 104.25 728.867 82.1248 728.867 54.8317C728.867 27.5385 706.224 5.41306 678.294 5.41306C650.363 5.41306 627.72 27.5385 627.72 54.8317C627.72 82.1248 650.363 104.25 678.294 104.25ZM678.294 113.663C711.545 113.663 738.5 87.3235 738.5 54.8317C738.5 22.3398 711.545 -4 678.294 -4C645.043 -4 618.087 22.3398 618.087 54.8317C618.087 87.3235 645.043 113.663 678.294 113.663Z" fill="#E7F3EC"/>
<path d="M657.95 86.1717V23.4912H678.429C686.579 23.4912 692.717 25.1502 696.845 28.4683C700.972 31.6827 703.036 36.5043 703.036 42.933C703.036 46.9769 702.189 50.6061 700.496 53.8205C698.803 57.0349 696.104 59.5753 692.4 61.4417C688.695 63.2044 683.774 64.0858 677.636 64.0858H672.238V86.1717H657.95ZM672.238 52.7317H676.366C679.011 52.7317 681.234 52.4207 683.033 51.7985C684.832 51.1764 686.155 50.1913 687.002 48.8434C687.955 47.3917 688.431 45.5253 688.431 43.2441C688.431 40.6519 687.531 38.5781 685.732 37.0227C684.039 35.4674 681.393 34.6897 677.794 34.6897H672.238V52.7317Z" fill="#E7F3EC"/>
<path d="M498.5 58.4058V47.4092H530.355V58.4058H498.5Z" fill="#E7F3EC"/>
<path d="M535.493 58.4058V47.4092H567.349V58.4058H535.493Z" fill="#E7F3EC"/>
<path d="M572.487 58.4058V47.4092H604.342V58.4058H572.487Z" fill="#E7F3EC"/>
<path fill-rule="evenodd" clip-rule="evenodd" d="M935.294 104.25C963.224 104.25 985.867 82.1248 985.867 54.8317C985.867 27.5385 963.224 5.41306 935.294 5.41306C907.363 5.41306 884.72 27.5385 884.72 54.8317C884.72 82.1248 907.363 104.25 935.294 104.25ZM935.294 113.663C968.545 113.663 995.5 87.3235 995.5 54.8317C995.5 22.3398 968.545 -4 935.294 -4C902.043 -4 875.087 22.3398 875.087 54.8317C875.087 87.3235 902.043 113.663 935.294 113.663Z" fill="#E7F3EC"/>
<path d="M914.95 86.1717V23.4912H935.429C943.579 23.4912 949.717 25.1502 953.845 28.4683C957.972 31.6827 960.036 36.5043 960.036 42.933C960.036 46.9769 959.189 50.6061 957.496 53.8205C955.803 57.0349 953.104 59.5753 949.4 61.4417C945.695 63.2044 940.774 64.0858 934.636 64.0858H929.238V86.1717H914.95ZM929.238 52.7317H933.366C936.011 52.7317 938.234 52.4207 940.033 51.7985C941.832 51.1764 943.155 50.1913 944.002 48.8434C944.955 47.3917 945.431 45.5253 945.431 43.2441C945.431 40.6519 944.531 38.5781 942.732 37.0227C941.039 35.4674 938.393 34.6897 934.794 34.6897H929.238V52.7317Z" fill="#E7F3EC"/>
<path d="M755.5 58.4058V47.4092H787.355V58.4058H755.5Z" fill="#E7F3EC"/>
<path d="M792.493 58.4058V47.4092H824.349V58.4058H792.493Z" fill="#E7F3EC"/>
<path d="M829.487 58.4058V47.4092H861.342V58.4058H829.487Z" fill="#E7F3EC"/>
<path fill-rule="evenodd" clip-rule="evenodd" d="M35.7936 238.913C63.7245 238.913 86.3669 216.788 86.3669 189.495C86.3669 162.202 63.7245 140.076 35.7936 140.076C7.86282 140.076 -14.7796 162.202 -14.7796 189.495C-14.7796 216.788 7.86282 238.913 35.7936 238.913ZM35.7936 248.326C69.0446 248.326 95.9999 221.987 95.9999 189.495C95.9999 157.003 69.0446 130.663 35.7936 130.663C2.54266 130.663 -24.4126 157.003 -24.4126 189.495C-24.4126 221.987 2.54266 248.326 35.7936 248.326Z" fill="#E7F3EC"/>
<path d="M15.4507 220.835V158.154H35.9299C44.0792 158.154 50.2177 159.813 54.3453 163.131C58.4728 166.346 60.5366 171.167 60.5366 177.596C60.5366 181.64 59.6899 185.269 57.9966 188.484C56.3032 191.698 53.6044 194.238 49.9002 196.105C46.1959 197.867 41.2746 198.749 35.1361 198.749H29.7385V220.835H15.4507ZM29.7385 187.395H33.8661C36.512 187.395 38.7345 187.084 40.5337 186.462C42.3329 185.839 43.6559 184.854 44.5025 183.506C45.4551 182.055 45.9313 180.188 45.9313 177.907C45.9313 175.315 45.0317 173.241 43.2325 171.686C41.5392 170.13 38.8933 169.353 35.2949 169.353H29.7385V187.395Z" fill="#E7F3EC"/>
<path fill-rule="evenodd" clip-rule="evenodd" d="M292.794 238.913C320.724 238.913 343.367 216.788 343.367 189.495C343.367 162.202 320.724 140.076 292.794 140.076C264.863 140.076 242.22 162.202 242.22 189.495C242.22 216.788 264.863 238.913 292.794 238.913ZM292.794 248.326C326.045 248.326 353 221.987 353 189.495C353 157.003 326.045 130.663 292.794 130.663C259.543 130.663 232.587 157.003 232.587 189.495C232.587 221.987 259.543 248.326 292.794 248.326Z" fill="#E7F3EC"/>
<path d="M272.45 220.835V158.154H292.929C301.079 158.154 307.217 159.813 311.345 163.131C315.472 166.346 317.536 171.167 317.536 177.596C317.536 181.64 316.689 185.269 314.996 188.484C313.303 191.698 310.604 194.238 306.9 196.105C303.195 197.867 298.274 198.749 292.136 198.749H286.738V220.835H272.45ZM286.738 187.395H290.866C293.511 187.395 295.734 187.084 297.533 186.462C299.332 185.839 300.655 184.854 301.502 183.506C302.455 182.055 302.931 180.188 302.931 177.907C302.931 175.315 302.031 173.241 300.232 171.686C298.539 170.13 295.893 169.353 292.294 169.353H286.738V187.395Z" fill="#E7F3EC"/>
<path d="M113 193.069V182.072H144.855V193.069H113Z" fill="#E7F3EC"/>
<path d="M149.993 193.069V182.072H181.849V193.069H149.993Z" fill="#E7F3EC"/>
<path d="M186.987 193.069V182.072H218.842V193.069H186.987Z" fill="#E7F3EC"/>
<path fill-rule="evenodd" clip-rule="evenodd" d="M549.794 238.913C577.724 238.913 600.367 216.788 600.367 189.495C600.367 162.202 577.724 140.076 549.794 140.076C521.863 140.076 499.22 162.202 499.22 189.495C499.22 216.788 521.863 238.913 549.794 238.913ZM549.794 248.326C583.045 248.326 610 221.987 610 189.495C610 157.003 583.045 130.663 549.794 130.663C516.543 130.663 489.587 157.003 489.587 189.495C489.587 221.987 516.543 248.326 549.794 248.326Z" fill="#E7F3EC"/>
<path d="M529.45 220.835V158.154H549.929C558.079 158.154 564.217 159.813 568.345 163.131C572.472 166.346 574.536 171.167 574.536 177.596C574.536 181.64 573.689 185.269 571.996 188.484C570.303 191.698 567.604 194.238 563.9 196.105C560.195 197.867 555.274 198.749 549.136 198.749H543.738V220.835H529.45ZM543.738 187.395H547.866C550.511 187.395 552.734 187.084 554.533 186.462C556.332 185.839 557.655 184.854 558.502 183.506C559.455 182.055 559.931 180.188 559.931 177.907C559.931 175.315 559.031 173.241 557.232 171.686C555.539 170.13 552.893 169.353 549.294 169.353H543.738V187.395Z" fill="#E7F3EC"/>
<path d="M370 193.069V182.072H401.855V193.069H370Z" fill="#E7F3EC"/>
<path d="M406.993 193.069V182.072H438.849V193.069H406.993Z" fill="#E7F3EC"/>
<path d="M443.987 193.069V182.072H475.842V193.069H443.987Z" fill="#E7F3EC"/>
<path fill-rule="evenodd" clip-rule="evenodd" d="M806.794 238.913C834.724 238.913 857.367 216.788 857.367 189.495C857.367 162.202 834.724 140.076 806.794 140.076C778.863 140.076 756.22 162.202 756.22 189.495C756.22 216.788 778.863 238.913 806.794 238.913ZM806.794 248.326C840.045 248.326 867 221.987 867 189.495C867 157.003 840.045 130.663 806.794 130.663C773.543 130.663 746.587 157.003 746.587 189.495C746.587 221.987 773.543 248.326 806.794 248.326Z" fill="#E7F3EC"/>
<path d="M786.45 220.835V158.154H806.929C815.079 158.154 821.217 159.813 825.345 163.131C829.472 166.346 831.536 171.167 831.536 177.596C831.536 181.64 830.689 185.269 828.996 188.484C827.303 191.698 824.604 194.238 820.9 196.105C817.195 197.867 812.274 198.749 806.136 198.749H800.738V220.835H786.45ZM800.738 187.395H804.866C807.511 187.395 809.734 187.084 811.533 186.462C813.332 185.839 814.655 184.854 815.502 183.506C816.455 182.055 816.931 180.188 816.931 177.907C816.931 175.315 816.031 173.241 814.232 171.686C812.539 170.13 809.893 169.353 806.294 169.353H800.738V187.395Z" fill="#E7F3EC"/>
<path d="M627 193.069V182.072H658.855V193.069H627Z" fill="#E7F3EC"/>
<path d="M663.993 193.069V182.072H695.849V193.069H663.993Z" fill="#E7F3EC"/>
<path d="M700.987 193.069V182.072H732.842V193.069H700.987Z" fill="#E7F3EC"/>
<path d="M884 193.069V182.072H915.855V193.069H884Z" fill="#E7F3EC"/>
<path d="M920.993 193.069V182.072H952.849V193.069H920.993Z" fill="#E7F3EC"/>
<path d="M957.987 193.069V182.072H989.842V193.069H957.987Z" fill="#E7F3EC"/>
<path fill-rule="evenodd" clip-rule="evenodd" d="M164.294 356.25C192.224 356.25 214.867 334.125 214.867 306.832C214.867 279.539 192.224 257.413 164.294 257.413C136.363 257.413 113.72 279.539 113.72 306.832C113.72 334.125 136.363 356.25 164.294 356.25ZM164.294 365.663C197.545 365.663 224.5 339.323 224.5 306.832C224.5 274.34 197.545 248 164.294 248C131.043 248 104.087 274.34 104.087 306.832C104.087 339.323 131.043 365.663 164.294 365.663Z" fill="#E7F3EC"/>
<path d="M143.951 338.172V275.491H164.43C172.579 275.491 178.718 277.15 182.845 280.468C186.973 283.683 189.037 288.504 189.037 294.933C189.037 298.977 188.19 302.606 186.497 305.82C184.803 309.035 182.104 311.575 178.4 313.442C174.696 315.204 169.775 316.086 163.636 316.086H158.238V338.172H143.951ZM158.238 304.732H162.366C165.012 304.732 167.235 304.421 169.034 303.799C170.833 303.176 172.156 302.191 173.003 300.843C173.955 299.392 174.431 297.525 174.431 295.244C174.431 292.652 173.532 290.578 171.733 289.023C170.039 287.467 167.393 286.69 163.795 286.69H158.238V304.732Z" fill="#E7F3EC"/>
<path d="M-15.5 310.406V299.409H16.3551V310.406H-15.5Z" fill="#E7F3EC"/>
<path d="M21.4935 310.406V299.409H53.3486V310.406H21.4935Z" fill="#E7F3EC"/>
<path d="M58.4869 310.406V299.409H90.342V310.406H58.4869Z" fill="#E7F3EC"/>
<path fill-rule="evenodd" clip-rule="evenodd" d="M421.294 356.25C449.224 356.25 471.867 334.125 471.867 306.832C471.867 279.539 449.224 257.413 421.294 257.413C393.363 257.413 370.72 279.539 370.72 306.832C370.72 334.125 393.363 356.25 421.294 356.25ZM421.294 365.663C454.545 365.663 481.5 339.323 481.5 306.832C481.5 274.34 454.545 248 421.294 248C388.043 248 361.087 274.34 361.087 306.832C361.087 339.323 388.043 365.663 421.294 365.663Z" fill="#E7F3EC"/>
<path d="M400.95 338.172V275.491H421.429C429.579 275.491 435.717 277.15 439.845 280.468C443.972 283.683 446.036 288.504 446.036 294.933C446.036 298.977 445.189 302.606 443.496 305.82C441.803 309.035 439.104 311.575 435.4 313.442C431.695 315.204 426.774 316.086 420.636 316.086H415.238V338.172H400.95ZM415.238 304.732H419.366C422.011 304.732 424.234 304.421 426.033 303.799C427.832 303.176 429.155 302.191 430.002 300.843C430.955 299.392 431.431 297.525 431.431 295.244C431.431 292.652 430.531 290.578 428.732 289.023C427.039 287.467 424.393 286.69 420.794 286.69H415.238V304.732Z" fill="#E7F3EC"/>
<path d="M241.5 310.406V299.409H273.355V310.406H241.5Z" fill="#E7F3EC"/>
<path d="M278.493 310.406V299.409H310.349V310.406H278.493Z" fill="#E7F3EC"/>
<path d="M315.487 310.406V299.409H347.342V310.406H315.487Z" fill="#E7F3EC"/>
<path fill-rule="evenodd" clip-rule="evenodd" d="M678.294 356.25C706.224 356.25 728.867 334.125 728.867 306.832C728.867 279.539 706.224 257.413 678.294 257.413C650.363 257.413 627.72 279.539 627.72 306.832C627.72 334.125 650.363 356.25 678.294 356.25ZM678.294 365.663C711.545 365.663 738.5 339.323 738.5 306.832C738.5 274.34 711.545 248 678.294 248C645.043 248 618.087 274.34 618.087 306.832C618.087 339.323 645.043 365.663 678.294 365.663Z" fill="#E7F3EC"/>
<path d="M657.95 338.172V275.491H678.429C686.579 275.491 692.717 277.15 696.845 280.468C700.972 283.683 703.036 288.504 703.036 294.933C703.036 298.977 702.189 302.606 700.496 305.82C698.803 309.035 696.104 311.575 692.4 313.442C688.695 315.204 683.774 316.086 677.636 316.086H672.238V338.172H657.95ZM672.238 304.732H676.366C679.011 304.732 681.234 304.421 683.033 303.799C684.832 303.176 686.155 302.191 687.002 300.843C687.955 299.392 688.431 297.525 688.431 295.244C688.431 292.652 687.531 290.578 685.732 289.023C684.039 287.467 681.393 286.69 677.794 286.69H672.238V304.732Z" fill="#E7F3EC"/>
<path d="M498.5 310.406V299.409H530.355V310.406H498.5Z" fill="#E7F3EC"/>
<path d="M535.493 310.406V299.409H567.349V310.406H535.493Z" fill="#E7F3EC"/>
<path d="M572.487 310.406V299.409H604.342V310.406H572.487Z" fill="#E7F3EC"/>
<path fill-rule="evenodd" clip-rule="evenodd" d="M935.294 356.25C963.224 356.25 985.867 334.125 985.867 306.832C985.867 279.539 963.224 257.413 935.294 257.413C907.363 257.413 884.72 279.539 884.72 306.832C884.72 334.125 907.363 356.25 935.294 356.25ZM935.294 365.663C968.545 365.663 995.5 339.323 995.5 306.832C995.5 274.34 968.545 248 935.294 248C902.043 248 875.087 274.34 875.087 306.832C875.087 339.323 902.043 365.663 935.294 365.663Z" fill="#E7F3EC"/>
<path d="M914.95 338.172V275.491H935.429C943.579 275.491 949.717 277.15 953.845 280.468C957.972 283.683 960.036 288.504 960.036 294.933C960.036 298.977 959.189 302.606 957.496 305.82C955.803 309.035 953.104 311.575 949.4 313.442C945.695 315.204 940.774 316.086 934.636 316.086H929.238V338.172H914.95ZM929.238 304.732H933.366C936.011 304.732 938.234 304.421 940.033 303.799C941.832 303.176 943.155 302.191 944.002 300.843C944.955 299.392 945.431 297.525 945.431 295.244C945.431 292.652 944.531 290.578 942.732 289.023C941.039 287.467 938.393 286.69 934.794 286.69H929.238V304.732Z" fill="#E7F3EC"/>
<path d="M755.5 310.406V299.409H787.355V310.406H755.5Z" fill="#E7F3EC"/>
<path d="M792.493 310.406V299.409H824.349V310.406H792.493Z" fill="#E7F3EC"/>
<path d="M829.487 310.406V299.409H861.342V310.406H829.487Z" fill="#E7F3EC"/>
<path fill-rule="evenodd" clip-rule="evenodd" d="M35.7936 490.913C63.7245 490.913 86.3669 468.788 86.3669 441.495C86.3669 414.202 63.7245 392.076 35.7936 392.076C7.86282 392.076 -14.7796 414.202 -14.7796 441.495C-14.7796 468.788 7.86282 490.913 35.7936 490.913ZM35.7936 500.326C69.0446 500.326 95.9999 473.987 95.9999 441.495C95.9999 409.003 69.0446 382.663 35.7936 382.663C2.54266 382.663 -24.4126 409.003 -24.4126 441.495C-24.4126 473.987 2.54266 500.326 35.7936 500.326Z" fill="#E7F3EC"/>
<path d="M15.4507 472.835V410.154H35.9299C44.0792 410.154 50.2177 411.813 54.3453 415.131C58.4728 418.346 60.5366 423.167 60.5366 429.596C60.5366 433.64 59.6899 437.269 57.9966 440.484C56.3032 443.698 53.6044 446.238 49.9002 448.105C46.1959 449.867 41.2746 450.749 35.1361 450.749H29.7385V472.835H15.4507ZM29.7385 439.395H33.8661C36.512 439.395 38.7345 439.084 40.5337 438.462C42.3329 437.839 43.6559 436.854 44.5025 435.506C45.4551 434.055 45.9313 432.188 45.9313 429.907C45.9313 427.315 45.0317 425.241 43.2325 423.686C41.5392 422.13 38.8933 421.353 35.2949 421.353H29.7385V439.395Z" fill="#E7F3EC"/>
<path fill-rule="evenodd" clip-rule="evenodd" d="M292.794 490.913C320.724 490.913 343.367 468.788 343.367 441.495C343.367 414.202 320.724 392.076 292.794 392.076C264.863 392.076 242.22 414.202 242.22 441.495C242.22 468.788 264.863 490.913 292.794 490.913ZM292.794 500.326C326.045 500.326 353 473.987 353 441.495C353 409.003 326.045 382.663 292.794 382.663C259.543 382.663 232.587 409.003 232.587 441.495C232.587 473.987 259.543 500.326 292.794 500.326Z" fill="#E7F3EC"/>
<path d="M272.45 472.835V410.154H292.929C301.079 410.154 307.217 411.813 311.345 415.131C315.472 418.346 317.536 423.167 317.536 429.596C317.536 433.64 316.689 437.269 314.996 440.484C313.303 443.698 310.604 446.238 306.9 448.105C303.195 449.867 298.274 450.749 292.136 450.749H286.738V472.835H272.45ZM286.738 439.395H290.866C293.511 439.395 295.734 439.084 297.533 438.462C299.332 437.839 300.655 436.854 301.502 435.506C302.455 434.055 302.931 432.188 302.931 429.907C302.931 427.315 302.031 425.241 300.232 423.686C298.539 422.13 295.893 421.353 292.294 421.353H286.738V439.395Z" fill="#E7F3EC"/>
<path d="M113 445.069V434.072H144.855V445.069H113Z" fill="#E7F3EC"/>
<path d="M149.993 445.069V434.072H181.849V445.069H149.993Z" fill="#E7F3EC"/>
<path d="M186.987 445.069V434.072H218.842V445.069H186.987Z" fill="#E7F3EC"/>
<path fill-rule="evenodd" clip-rule="evenodd" d="M549.794 490.913C577.724 490.913 600.367 468.788 600.367 441.495C600.367 414.202 577.724 392.076 549.794 392.076C521.863 392.076 499.22 414.202 499.22 441.495C499.22 468.788 521.863 490.913 549.794 490.913ZM549.794 500.326C583.045 500.326 610 473.987 610 441.495C610 409.003 583.045 382.663 549.794 382.663C516.543 382.663 489.587 409.003 489.587 441.495C489.587 473.987 516.543 500.326 549.794 500.326Z" fill="#E7F3EC"/>
<path d="M529.45 472.835V410.154H549.929C558.079 410.154 564.217 411.813 568.345 415.131C572.472 418.346 574.536 423.167 574.536 429.596C574.536 433.64 573.689 437.269 571.996 440.484C570.303 443.698 567.604 446.238 563.9 448.105C560.195 449.867 555.274 450.749 549.136 450.749H543.738V472.835H529.45ZM543.738 439.395H547.866C550.511 439.395 552.734 439.084 554.533 438.462C556.332 437.839 557.655 436.854 558.502 435.506C559.455 434.055 559.931 432.188 559.931 429.907C559.931 427.315 559.031 425.241 557.232 423.686C555.539 422.13 552.893 421.353 549.294 421.353H543.738V439.395Z" fill="#E7F3EC"/>
<path d="M370 445.069V434.072H401.855V445.069H370Z" fill="#E7F3EC"/>
<path d="M406.993 445.069V434.072H438.849V445.069H406.993Z" fill="#E7F3EC"/>
<path d="M443.987 445.069V434.072H475.842V445.069H443.987Z" fill="#E7F3EC"/>
<path fill-rule="evenodd" clip-rule="evenodd" d="M806.794 490.913C834.724 490.913 857.367 468.788 857.367 441.495C857.367 414.202 834.724 392.076 806.794 392.076C778.863 392.076 756.22 414.202 756.22 441.495C756.22 468.788 778.863 490.913 806.794 490.913ZM806.794 500.326C840.045 500.326 867 473.987 867 441.495C867 409.003 840.045 382.663 806.794 382.663C773.543 382.663 746.587 409.003 746.587 441.495C746.587 473.987 773.543 500.326 806.794 500.326Z" fill="#E7F3EC"/>
<path d="M786.45 472.835V410.154H806.929C815.079 410.154 821.217 411.813 825.345 415.131C829.472 418.346 831.536 423.167 831.536 429.596C831.536 433.64 830.689 437.269 828.996 440.484C827.303 443.698 824.604 446.238 820.9 448.105C817.195 449.867 812.274 450.749 806.136 450.749H800.738V472.835H786.45ZM800.738 439.395H804.866C807.511 439.395 809.734 439.084 811.533 438.462C813.332 437.839 814.655 436.854 815.502 435.506C816.455 434.055 816.931 432.188 816.931 429.907C816.931 427.315 816.031 425.241 814.232 423.686C812.539 422.13 809.893 421.353 806.294 421.353H800.738V439.395Z" fill="#E7F3EC"/>
<path d="M627 445.069V434.072H658.855V445.069H627Z" fill="#E7F3EC"/>
<path d="M663.993 445.069V434.072H695.849V445.069H663.993Z" fill="#E7F3EC"/>
<path d="M700.987 445.069V434.072H732.842V445.069H700.987Z" fill="#E7F3EC"/>
<path d="M884 445.069V434.072H915.855V445.069H884Z" fill="#E7F3EC"/>
<path d="M920.993 445.069V434.072H952.849V445.069H920.993Z" fill="#E7F3EC"/>
<path d="M957.987 445.069V434.072H989.842V445.069H957.987Z" fill="#E7F3EC"/>
<path fill-rule="evenodd" clip-rule="evenodd" d="M164.294 608.25C192.224 608.25 214.867 586.125 214.867 558.832C214.867 531.539 192.224 509.413 164.294 509.413C136.363 509.413 113.72 531.539 113.72 558.832C113.72 586.125 136.363 608.25 164.294 608.25ZM164.294 617.663C197.545 617.663 224.5 591.323 224.5 558.832C224.5 526.34 197.545 500 164.294 500C131.043 500 104.087 526.34 104.087 558.832C104.087 591.323 131.043 617.663 164.294 617.663Z" fill="#E7F3EC"/>
<path d="M143.951 590.172V527.491H164.43C172.579 527.491 178.718 529.15 182.845 532.468C186.973 535.683 189.037 540.504 189.037 546.933C189.037 550.977 188.19 554.606 186.497 557.82C184.803 561.035 182.104 563.575 178.4 565.442C174.696 567.204 169.775 568.086 163.636 568.086H158.238V590.172H143.951ZM158.238 556.732H162.366C165.012 556.732 167.235 556.421 169.034 555.799C170.833 555.176 172.156 554.191 173.003 552.843C173.955 551.392 174.431 549.525 174.431 547.244C174.431 544.652 173.532 542.578 171.733 541.023C170.039 539.467 167.393 538.69 163.795 538.69H158.238V556.732Z" fill="#E7F3EC"/>
<path d="M-15.5 562.406V551.409H16.3551V562.406H-15.5Z" fill="#E7F3EC"/>
<path d="M21.4935 562.406V551.409H53.3486V562.406H21.4935Z" fill="#E7F3EC"/>
<path d="M58.4869 562.406V551.409H90.342V562.406H58.4869Z" fill="#E7F3EC"/>
<path fill-rule="evenodd" clip-rule="evenodd" d="M421.294 608.25C449.224 608.25 471.867 586.125 471.867 558.832C471.867 531.539 449.224 509.413 421.294 509.413C393.363 509.413 370.72 531.539 370.72 558.832C370.72 586.125 393.363 608.25 421.294 608.25ZM421.294 617.663C454.545 617.663 481.5 591.323 481.5 558.832C481.5 526.34 454.545 500 421.294 500C388.043 500 361.087 526.34 361.087 558.832C361.087 591.323 388.043 617.663 421.294 617.663Z" fill="#E7F3EC"/>
<path d="M400.95 590.172V527.491H421.429C429.579 527.491 435.717 529.15 439.845 532.468C443.972 535.683 446.036 540.504 446.036 546.933C446.036 550.977 445.189 554.606 443.496 557.82C441.803 561.035 439.104 563.575 435.4 565.442C431.695 567.204 426.774 568.086 420.636 568.086H415.238V590.172H400.95ZM415.238 556.732H419.366C422.011 556.732 424.234 556.421 426.033 555.799C427.832 555.176 429.155 554.191 430.002 552.843C430.955 551.392 431.431 549.525 431.431 547.244C431.431 544.652 430.531 542.578 428.732 541.023C427.039 539.467 424.393 538.69 420.794 538.69H415.238V556.732Z" fill="#E7F3EC"/>
<path d="M241.5 562.406V551.409H273.355V562.406H241.5Z" fill="#E7F3EC"/>
<path d="M278.493 562.406V551.409H310.349V562.406H278.493Z" fill="#E7F3EC"/>
<path d="M315.487 562.406V551.409H347.342V562.406H315.487Z" fill="#E7F3EC"/>
<path fill-rule="evenodd" clip-rule="evenodd" d="M678.294 608.25C706.224 608.25 728.867 586.125 728.867 558.832C728.867 531.539 706.224 509.413 678.294 509.413C650.363 509.413 627.72 531.539 627.72 558.832C627.72 586.125 650.363 608.25 678.294 608.25ZM678.294 617.663C711.545 617.663 738.5 591.323 738.5 558.832C738.5 526.34 711.545 500 678.294 500C645.043 500 618.087 526.34 618.087 558.832C618.087 591.323 645.043 617.663 678.294 617.663Z" fill="#E7F3EC"/>
<path d="M657.95 590.172V527.491H678.429C686.579 527.491 692.717 529.15 696.845 532.468C700.972 535.683 703.036 540.504 703.036 546.933C703.036 550.977 702.189 554.606 700.496 557.82C698.803 561.035 696.104 563.575 692.4 565.442C688.695 567.204 683.774 568.086 677.636 568.086H672.238V590.172H657.95ZM672.238 556.732H676.366C679.011 556.732 681.234 556.421 683.033 555.799C684.832 555.176 686.155 554.191 687.002 552.843C687.955 551.392 688.431 549.525 688.431 547.244C688.431 544.652 687.531 542.578 685.732 541.023C684.039 539.467 681.393 538.69 677.794 538.69H672.238V556.732Z" fill="#E7F3EC"/>
<path d="M498.5 562.406V551.409H530.355V562.406H498.5Z" fill="#E7F3EC"/>
<path d="M535.493 562.406V551.409H567.349V562.406H535.493Z" fill="#E7F3EC"/>
<path d="M572.487 562.406V551.409H604.342V562.406H572.487Z" fill="#E7F3EC"/>
<path fill-rule="evenodd" clip-rule="evenodd" d="M935.294 608.25C963.224 608.25 985.867 586.125 985.867 558.832C985.867 531.539 963.224 509.413 935.294 509.413C907.363 509.413 884.72 531.539 884.72 558.832C884.72 586.125 907.363 608.25 935.294 608.25ZM935.294 617.663C968.545 617.663 995.5 591.323 995.5 558.832C995.5 526.34 968.545 500 935.294 500C902.043 500 875.087 526.34 875.087 558.832C875.087 591.323 902.043 617.663 935.294 617.663Z" fill="#E7F3EC"/>
<path d="M914.95 590.172V527.491H935.429C943.579 527.491 949.717 529.15 953.845 532.468C957.972 535.683 960.036 540.504 960.036 546.933C960.036 550.977 959.189 554.606 957.496 557.82C955.803 561.035 953.104 563.575 949.4 565.442C945.695 567.204 940.774 568.086 934.636 568.086H929.238V590.172H914.95ZM929.238 556.732H933.366C936.011 556.732 938.234 556.421 940.033 555.799C941.832 555.176 943.155 554.191 944.002 552.843C944.955 551.392 945.431 549.525 945.431 547.244C945.431 544.652 944.531 542.578 942.732 541.023C941.039 539.467 938.393 538.69 934.794 538.69H929.238V556.732Z" fill="#E7F3EC"/>
<path d="M755.5 562.406V551.409H787.355V562.406H755.5Z" fill="#E7F3EC"/>
<path d="M792.493 562.406V551.409H824.349V562.406H792.493Z" fill="#E7F3EC"/>
<path d="M829.487 562.406V551.409H861.342V562.406H829.487Z" fill="#E7F3EC"/>
<path fill-rule="evenodd" clip-rule="evenodd" d="M35.7936 742.913C63.7245 742.913 86.3669 720.788 86.3669 693.495C86.3669 666.202 63.7245 644.076 35.7936 644.076C7.86282 644.076 -14.7796 666.202 -14.7796 693.495C-14.7796 720.788 7.86282 742.913 35.7936 742.913ZM35.7936 752.326C69.0446 752.326 95.9999 725.987 95.9999 693.495C95.9999 661.003 69.0446 634.663 35.7936 634.663C2.54266 634.663 -24.4126 661.003 -24.4126 693.495C-24.4126 725.987 2.54266 752.326 35.7936 752.326Z" fill="#E7F3EC"/>
<path d="M15.4507 724.835V662.154H35.9299C44.0792 662.154 50.2177 663.813 54.3453 667.131C58.4728 670.346 60.5366 675.167 60.5366 681.596C60.5366 685.64 59.6899 689.269 57.9966 692.484C56.3032 695.698 53.6044 698.238 49.9002 700.105C46.1959 701.867 41.2746 702.749 35.1361 702.749H29.7385V724.835H15.4507ZM29.7385 691.395H33.8661C36.512 691.395 38.7345 691.084 40.5337 690.462C42.3329 689.839 43.6559 688.854 44.5025 687.506C45.4551 686.055 45.9313 684.188 45.9313 681.907C45.9313 679.315 45.0317 677.241 43.2325 675.686C41.5392 674.13 38.8933 673.353 35.2949 673.353H29.7385V691.395Z" fill="#E7F3EC"/>
<path fill-rule="evenodd" clip-rule="evenodd" d="M292.794 742.913C320.724 742.913 343.367 720.788 343.367 693.495C343.367 666.202 320.724 644.076 292.794 644.076C264.863 644.076 242.22 666.202 242.22 693.495C242.22 720.788 264.863 742.913 292.794 742.913ZM292.794 752.326C326.045 752.326 353 725.987 353 693.495C353 661.003 326.045 634.663 292.794 634.663C259.543 634.663 232.587 661.003 232.587 693.495C232.587 725.987 259.543 752.326 292.794 752.326Z" fill="#E7F3EC"/>
<path d="M272.45 724.835V662.154H292.929C301.079 662.154 307.217 663.813 311.345 667.131C315.472 670.346 317.536 675.167 317.536 681.596C317.536 685.64 316.689 689.269 314.996 692.484C313.303 695.698 310.604 698.238 306.9 700.105C303.195 701.867 298.274 702.749 292.136 702.749H286.738V724.835H272.45ZM286.738 691.395H290.866C293.511 691.395 295.734 691.084 297.533 690.462C299.332 689.839 300.655 688.854 301.502 687.506C302.455 686.055 302.931 684.188 302.931 681.907C302.931 679.315 302.031 677.241 300.232 675.686C298.539 674.13 295.893 673.353 292.294 673.353H286.738V691.395Z" fill="#E7F3EC"/>
<path d="M113 697.069V686.072H144.855V697.069H113Z" fill="#E7F3EC"/>
<path d="M149.993 697.069V686.072H181.849V697.069H149.993Z" fill="#E7F3EC"/>
<path d="M186.987 697.069V686.072H218.842V697.069H186.987Z" fill="#E7F3EC"/>
<path fill-rule="evenodd" clip-rule="evenodd" d="M549.794 742.913C577.724 742.913 600.367 720.788 600.367 693.495C600.367 666.202 577.724 644.076 549.794 644.076C521.863 644.076 499.22 666.202 499.22 693.495C499.22 720.788 521.863 742.913 549.794 742.913ZM549.794 752.326C583.045 752.326 610 725.987 610 693.495C610 661.003 583.045 634.663 549.794 634.663C516.543 634.663 489.587 661.003 489.587 693.495C489.587 725.987 516.543 752.326 549.794 752.326Z" fill="#E7F3EC"/>
<path d="M529.45 724.835V662.154H549.929C558.079 662.154 564.217 663.813 568.345 667.131C572.472 670.346 574.536 675.167 574.536 681.596C574.536 685.64 573.689 689.269 571.996 692.484C570.303 695.698 567.604 698.238 563.9 700.105C560.195 701.867 555.274 702.749 549.136 702.749H543.738V724.835H529.45ZM543.738 691.395H547.866C550.511 691.395 552.734 691.084 554.533 690.462C556.332 689.839 557.655 688.854 558.502 687.506C559.455 686.055 559.931 684.188 559.931 681.907C559.931 679.315 559.031 677.241 557.232 675.686C555.539 674.13 552.893 673.353 549.294 673.353H543.738V691.395Z" fill="#E7F3EC"/>
<path d="M370 697.069V686.072H401.855V697.069H370Z" fill="#E7F3EC"/>
<path d="M406.993 697.069V686.072H438.849V697.069H406.993Z" fill="#E7F3EC"/>
<path d="M443.987 697.069V686.072H475.842V697.069H443.987Z" fill="#E7F3EC"/>
<path fill-rule="evenodd" clip-rule="evenodd" d="M806.794 742.913C834.724 742.913 857.367 720.788 857.367 693.495C857.367 666.202 834.724 644.076 806.794 644.076C778.863 644.076 756.22 666.202 756.22 693.495C756.22 720.788 778.863 742.913 806.794 742.913ZM806.794 752.326C840.045 752.326 867 725.987 867 693.495C867 661.003 840.045 634.663 806.794 634.663C773.543 634.663 746.587 661.003 746.587 693.495C746.587 725.987 773.543 752.326 806.794 752.326Z" fill="#E7F3EC"/>
<path d="M786.45 724.835V662.154H806.929C815.079 662.154 821.217 663.813 825.345 667.131C829.472 670.346 831.536 675.167 831.536 681.596C831.536 685.64 830.689 689.269 828.996 692.484C827.303 695.698 824.604 698.238 820.9 700.105C817.195 701.867 812.274 702.749 806.136 702.749H800.738V724.835H786.45ZM800.738 691.395H804.866C807.511 691.395 809.734 691.084 811.533 690.462C813.332 689.839 814.655 688.854 815.502 687.506C816.455 686.055 816.931 684.188 816.931 681.907C816.931 679.315 816.031 677.241 814.232 675.686C812.539 674.13 809.893 673.353 806.294 673.353H800.738V691.395Z" fill="#E7F3EC"/>
<path d="M627 697.069V686.072H658.855V697.069H627Z" fill="#E7F3EC"/>
<path d="M663.993 697.069V686.072H695.849V697.069H663.993Z" fill="#E7F3EC"/>
<path d="M700.987 697.069V686.072H732.842V697.069H700.987Z" fill="#E7F3EC"/>
<path d="M884 697.069V686.072H915.855V697.069H884Z" fill="#E7F3EC"/>
<path d="M920.993 697.069V686.072H952.849V697.069H920.993Z" fill="#E7F3EC"/>
<path d="M957.987 697.069V686.072H989.842V697.069H957.987Z" fill="#E7F3EC"/>
<path fill-rule="evenodd" clip-rule="evenodd" d="M164.294 860.25C192.224 860.25 214.867 838.125 214.867 810.832C214.867 783.539 192.224 761.413 164.294 761.413C136.363 761.413 113.72 783.539 113.72 810.832C113.72 838.125 136.363 860.25 164.294 860.25ZM164.294 869.663C197.545 869.663 224.5 843.323 224.5 810.832C224.5 778.34 197.545 752 164.294 752C131.043 752 104.087 778.34 104.087 810.832C104.087 843.323 131.043 869.663 164.294 869.663Z" fill="#E7F3EC"/>
<path d="M143.951 842.172V779.491H164.43C172.579 779.491 178.718 781.15 182.845 784.468C186.973 787.683 189.037 792.504 189.037 798.933C189.037 802.977 188.19 806.606 186.497 809.82C184.803 813.035 182.104 815.575 178.4 817.442C174.696 819.204 169.775 820.086 163.636 820.086H158.238V842.172H143.951ZM158.238 808.732H162.366C165.012 808.732 167.235 808.421 169.034 807.799C170.833 807.176 172.156 806.191 173.003 804.843C173.955 803.392 174.431 801.525 174.431 799.244C174.431 796.652 173.532 794.578 171.733 793.023C170.039 791.467 167.393 790.69 163.795 790.69H158.238V808.732Z" fill="#E7F3EC"/>
<path d="M-15.5 814.406V803.409H16.3551V814.406H-15.5Z" fill="#E7F3EC"/>
<path d="M21.4935 814.406V803.409H53.3486V814.406H21.4935Z" fill="#E7F3EC"/>
<path d="M58.4869 814.406V803.409H90.342V814.406H58.4869Z" fill="#E7F3EC"/>
<path fill-rule="evenodd" clip-rule="evenodd" d="M421.294 860.25C449.224 860.25 471.867 838.125 471.867 810.832C471.867 783.539 449.224 761.413 421.294 761.413C393.363 761.413 370.72 783.539 370.72 810.832C370.72 838.125 393.363 860.25 421.294 860.25ZM421.294 869.663C454.545 869.663 481.5 843.323 481.5 810.832C481.5 778.34 454.545 752 421.294 752C388.043 752 361.087 778.34 361.087 810.832C361.087 843.323 388.043 869.663 421.294 869.663Z" fill="#E7F3EC"/>
<path d="M400.95 842.172V779.491H421.429C429.579 779.491 435.717 781.15 439.845 784.468C443.972 787.683 446.036 792.504 446.036 798.933C446.036 802.977 445.189 806.606 443.496 809.82C441.803 813.035 439.104 815.575 435.4 817.442C431.695 819.204 426.774 820.086 420.636 820.086H415.238V842.172H400.95ZM415.238 808.732H419.366C422.011 808.732 424.234 808.421 426.033 807.799C427.832 807.176 429.155 806.191 430.002 804.843C430.955 803.392 431.431 801.525 431.431 799.244C431.431 796.652 430.531 794.578 428.732 793.023C427.039 791.467 424.393 790.69 420.794 790.69H415.238V808.732Z" fill="#E7F3EC"/>
<path d="M241.5 814.406V803.409H273.355V814.406H241.5Z" fill="#E7F3EC"/>
<path d="M278.493 814.406V803.409H310.349V814.406H278.493Z" fill="#E7F3EC"/>
<path d="M315.487 814.406V803.409H347.342V814.406H315.487Z" fill="#E7F3EC"/>
<path fill-rule="evenodd" clip-rule="evenodd" d="M678.294 860.25C706.224 860.25 728.867 838.125 728.867 810.832C728.867 783.539 706.224 761.413 678.294 761.413C650.363 761.413 627.72 783.539 627.72 810.832C627.72 838.125 650.363 860.25 678.294 860.25ZM678.294 869.663C711.545 869.663 738.5 843.323 738.5 810.832C738.5 778.34 711.545 752 678.294 752C645.043 752 618.087 778.34 618.087 810.832C618.087 843.323 645.043 869.663 678.294 869.663Z" fill="#E7F3EC"/>
<path d="M657.95 842.172V779.491H678.429C686.579 779.491 692.717 781.15 696.845 784.468C700.972 787.683 703.036 792.504 703.036 798.933C703.036 802.977 702.189 806.606 700.496 809.82C698.803 813.035 696.104 815.575 692.4 817.442C688.695 819.204 683.774 820.086 677.636 820.086H672.238V842.172H657.95ZM672.238 808.732H676.366C679.011 808.732 681.234 808.421 683.033 807.799C684.832 807.176 686.155 806.191 687.002 804.843C687.955 803.392 688.431 801.525 688.431 799.244C688.431 796.652 687.531 794.578 685.732 793.023C684.039 791.467 681.393 790.69 677.794 790.69H672.238V808.732Z" fill="#E7F3EC"/>
<path d="M498.5 814.406V803.409H530.355V814.406H498.5Z" fill="#E7F3EC"/>
<path d="M535.493 814.406V803.409H567.349V814.406H535.493Z" fill="#E7F3EC"/>
<path d="M572.487 814.406V803.409H604.342V814.406H572.487Z" fill="#E7F3EC"/>
<path fill-rule="evenodd" clip-rule="evenodd" d="M935.294 860.25C963.224 860.25 985.867 838.125 985.867 810.832C985.867 783.539 963.224 761.413 935.294 761.413C907.363 761.413 884.72 783.539 884.72 810.832C884.72 838.125 907.363 860.25 935.294 860.25ZM935.294 869.663C968.545 869.663 995.5 843.323 995.5 810.832C995.5 778.34 968.545 752 935.294 752C902.043 752 875.087 778.34 875.087 810.832C875.087 843.323 902.043 869.663 935.294 869.663Z" fill="#E7F3EC"/>
<path d="M914.95 842.172V779.491H935.429C943.579 779.491 949.717 781.15 953.845 784.468C957.972 787.683 960.036 792.504 960.036 798.933C960.036 802.977 959.189 806.606 957.496 809.82C955.803 813.035 953.104 815.575 949.4 817.442C945.695 819.204 940.774 820.086 934.636 820.086H929.238V842.172H914.95ZM929.238 808.732H933.366C936.011 808.732 938.234 808.421 940.033 807.799C941.832 807.176 943.155 806.191 944.002 804.843C944.955 803.392 945.431 801.525 945.431 799.244C945.431 796.652 944.531 794.578 942.732 793.023C941.039 791.467 938.393 790.69 934.794 790.69H929.238V808.732Z" fill="#E7F3EC"/>
<path d="M755.5 814.406V803.409H787.355V814.406H755.5Z" fill="#E7F3EC"/>
<path d="M792.493 814.406V803.409H824.349V814.406H792.493Z" fill="#E7F3EC"/>
<path d="M829.487 814.406V803.409H861.342V814.406H829.487Z" fill="#E7F3EC"/>
<path fill-rule="evenodd" clip-rule="evenodd" d="M35.7936 994.913C63.7245 994.913 86.3669 972.788 86.3669 945.495C86.3669 918.202 63.7245 896.076 35.7936 896.076C7.86282 896.076 -14.7796 918.202 -14.7796 945.495C-14.7796 972.788 7.86282 994.913 35.7936 994.913ZM35.7936 1004.33C69.0446 1004.33 95.9999 977.987 95.9999 945.495C95.9999 913.003 69.0446 886.663 35.7936 886.663C2.54266 886.663 -24.4126 913.003 -24.4126 945.495C-24.4126 977.987 2.54266 1004.33 35.7936 1004.33Z" fill="#E7F3EC"/>
<path d="M15.4507 976.835V914.154H35.9299C44.0792 914.154 50.2177 915.813 54.3453 919.131C58.4728 922.346 60.5366 927.167 60.5366 933.596C60.5366 937.64 59.6899 941.269 57.9966 944.484C56.3032 947.698 53.6044 950.238 49.9002 952.105C46.1959 953.867 41.2746 954.749 35.1361 954.749H29.7385V976.835H15.4507ZM29.7385 943.395H33.8661C36.512 943.395 38.7345 943.084 40.5337 942.462C42.3329 941.839 43.6559 940.854 44.5025 939.506C45.4551 938.055 45.9313 936.188 45.9313 933.907C45.9313 931.315 45.0317 929.241 43.2325 927.686C41.5392 926.13 38.8933 925.353 35.2949 925.353H29.7385V943.395Z" fill="#E7F3EC"/>
<path fill-rule="evenodd" clip-rule="evenodd" d="M292.794 994.913C320.724 994.913 343.367 972.788 343.367 945.495C343.367 918.202 320.724 896.076 292.794 896.076C264.863 896.076 242.22 918.202 242.22 945.495C242.22 972.788 264.863 994.913 292.794 994.913ZM292.794 1004.33C326.045 1004.33 353 977.987 353 945.495C353 913.003 326.045 886.663 292.794 886.663C259.543 886.663 232.587 913.003 232.587 945.495C232.587 977.987 259.543 1004.33 292.794 1004.33Z" fill="#E7F3EC"/>
<path d="M272.45 976.835V914.154H292.929C301.079 914.154 307.217 915.813 311.345 919.131C315.472 922.346 317.536 927.167 317.536 933.596C317.536 937.64 316.689 941.269 314.996 944.484C313.303 947.698 310.604 950.238 306.9 952.105C303.195 953.867 298.274 954.749 292.136 954.749H286.738V976.835H272.45ZM286.738 943.395H290.866C293.511 943.395 295.734 943.084 297.533 942.462C299.332 941.839 300.655 940.854 301.502 939.506C302.455 938.055 302.931 936.188 302.931 933.907C302.931 931.315 302.031 929.241 300.232 927.686C298.539 926.13 295.893 925.353 292.294 925.353H286.738V943.395Z" fill="#E7F3EC"/>
<path d="M113 949.069V938.072H144.855V949.069H113Z" fill="#E7F3EC"/>
<path d="M149.993 949.069V938.072H181.849V949.069H149.993Z" fill="#E7F3EC"/>
<path d="M186.987 949.069V938.072H218.842V949.069H186.987Z" fill="#E7F3EC"/>
<path fill-rule="evenodd" clip-rule="evenodd" d="M549.794 994.913C577.724 994.913 600.367 972.788 600.367 945.495C600.367 918.202 577.724 896.076 549.794 896.076C521.863 896.076 499.22 918.202 499.22 945.495C499.22 972.788 521.863 994.913 549.794 994.913ZM549.794 1004.33C583.045 1004.33 610 977.987 610 945.495C610 913.003 583.045 886.663 549.794 886.663C516.543 886.663 489.587 913.003 489.587 945.495C489.587 977.987 516.543 1004.33 549.794 1004.33Z" fill="#E7F3EC"/>
<path d="M529.45 976.835V914.154H549.929C558.079 914.154 564.217 915.813 568.345 919.131C572.472 922.346 574.536 927.167 574.536 933.596C574.536 937.64 573.689 941.269 571.996 944.484C570.303 947.698 567.604 950.238 563.9 952.105C560.195 953.867 555.274 954.749 549.136 954.749H543.738V976.835H529.45ZM543.738 943.395H547.866C550.511 943.395 552.734 943.084 554.533 942.462C556.332 941.839 557.655 940.854 558.502 939.506C559.455 938.055 559.931 936.188 559.931 933.907C559.931 931.315 559.031 929.241 557.232 927.686C555.539 926.13 552.893 925.353 549.294 925.353H543.738V943.395Z" fill="#E7F3EC"/>
<path d="M370 949.069V938.072H401.855V949.069H370Z" fill="#E7F3EC"/>
<path d="M406.993 949.069V938.072H438.849V949.069H406.993Z" fill="#E7F3EC"/>
<path d="M443.987 949.069V938.072H475.842V949.069H443.987Z" fill="#E7F3EC"/>
<path fill-rule="evenodd" clip-rule="evenodd" d="M806.794 994.913C834.724 994.913 857.367 972.788 857.367 945.495C857.367 918.202 834.724 896.076 806.794 896.076C778.863 896.076 756.22 918.202 756.22 945.495C756.22 972.788 778.863 994.913 806.794 994.913ZM806.794 1004.33C840.045 1004.33 867 977.987 867 945.495C867 913.003 840.045 886.663 806.794 886.663C773.543 886.663 746.587 913.003 746.587 945.495C746.587 977.987 773.543 1004.33 806.794 1004.33Z" fill="#E7F3EC"/>
<path d="M786.45 976.835V914.154H806.929C815.079 914.154 821.217 915.813 825.345 919.131C829.472 922.346 831.536 927.167 831.536 933.596C831.536 937.64 830.689 941.269 828.996 944.484C827.303 947.698 824.604 950.238 820.9 952.105C817.195 953.867 812.274 954.749 806.136 954.749H800.738V976.835H786.45ZM800.738 943.395H804.866C807.511 943.395 809.734 943.084 811.533 942.462C813.332 941.839 814.655 940.854 815.502 939.506C816.455 938.055 816.931 936.188 816.931 933.907C816.931 931.315 816.031 929.241 814.232 927.686C812.539 926.13 809.893 925.353 806.294 925.353H800.738V943.395Z" fill="#E7F3EC"/>
<path d="M627 949.069V938.072H658.855V949.069H627Z" fill="#E7F3EC"/>
<path d="M663.993 949.069V938.072H695.849V949.069H663.993Z" fill="#E7F3EC"/>
<path d="M700.987 949.069V938.072H732.842V949.069H700.987Z" fill="#E7F3EC"/>
<path d="M884 949.069V938.072H915.855V949.069H884Z" fill="#E7F3EC"/>
<path d="M920.993 949.069V938.072H952.849V949.069H920.993Z" fill="#E7F3EC"/>
<path d="M957.987 949.069V938.072H989.842V949.069H957.987Z" fill="#E7F3EC"/>
</g>
<defs>
<clipPath id="clip0_996_9860">
<rect width="1000" height="1000" fill="white"/>
</clipPath>
</defs>
</svg>
