<svg width="1000" height="1000" viewBox="0 0 1000 1000" fill="none" xmlns="http://www.w3.org/2000/svg">
<g clip-path="url(#clip0_476_9923)">
<rect width="1000" height="1000" fill="#829494" fill-opacity="0.3"/>
<g opacity="0.4">
<path fill-rule="evenodd" clip-rule="evenodd" d="M164.294 104.25C192.225 104.25 214.867 82.1248 214.867 54.8317C214.867 27.5385 192.225 5.41306 164.294 5.41306C136.363 5.41306 113.721 27.5385 113.721 54.8317C113.721 82.1248 136.363 104.25 164.294 104.25ZM164.294 113.663C197.545 113.663 224.5 87.3235 224.5 54.8317C224.5 22.3398 197.545 -4 164.294 -4C131.043 -4 104.088 22.3398 104.088 54.8317C104.088 87.3235 131.043 113.663 164.294 113.663Z" fill="#E0EFE6"/>
<path d="M143.951 86.1719V23.4914H164.43C172.579 23.4914 178.718 25.1504 182.845 28.4685C186.973 31.6829 189.037 36.5045 189.037 42.9332C189.037 46.9771 188.19 50.6063 186.496 53.8207C184.803 57.035 182.104 59.5754 178.4 61.4419C174.696 63.2046 169.774 64.0859 163.636 64.0859H158.238V86.1719H143.951ZM158.238 52.7319H162.366C165.012 52.7319 167.234 52.4208 169.034 51.7987C170.833 51.1766 172.156 50.1915 173.002 48.8436C173.955 47.3919 174.431 45.5255 174.431 43.2443C174.431 40.6521 173.532 38.5783 171.732 37.0229C170.039 35.4676 167.393 34.6899 163.795 34.6899H158.238V52.7319Z" fill="#E0EFE6"/>
<path d="M-15.5 58.4056V47.4091H16.3551V58.4056H-15.5Z" fill="#E0EFE6"/>
<path d="M21.4935 58.4056V47.4091H53.3486V58.4056H21.4935Z" fill="#E0EFE6"/>
<path d="M58.4869 58.4056V47.4091H90.342V58.4056H58.4869Z" fill="#E0EFE6"/>
<path fill-rule="evenodd" clip-rule="evenodd" d="M421.294 104.25C449.225 104.25 471.867 82.1248 471.867 54.8317C471.867 27.5385 449.225 5.41306 421.294 5.41306C393.363 5.41306 370.721 27.5385 370.721 54.8317C370.721 82.1248 393.363 104.25 421.294 104.25ZM421.294 113.663C454.545 113.663 481.5 87.3235 481.5 54.8317C481.5 22.3398 454.545 -4 421.294 -4C388.043 -4 361.088 22.3398 361.088 54.8317C361.088 87.3235 388.043 113.663 421.294 113.663Z" fill="#E0EFE6"/>
<path d="M400.95 86.1719V23.4914H421.43C429.579 23.4914 435.717 25.1504 439.845 28.4685C443.973 31.6829 446.036 36.5045 446.036 42.9332C446.036 46.9771 445.19 50.6063 443.496 53.8207C441.803 57.035 439.104 59.5754 435.4 61.4419C431.696 63.2046 426.774 64.0859 420.636 64.0859H415.238V86.1719H400.95ZM415.238 52.7319H419.366C422.012 52.7319 424.234 52.4208 426.033 51.7987C427.833 51.1766 429.156 50.1915 430.002 48.8436C430.955 47.3919 431.431 45.5255 431.431 43.2443C431.431 40.6521 430.531 38.5783 428.732 37.0229C427.039 35.4676 424.393 34.6899 420.795 34.6899H415.238V52.7319Z" fill="#E0EFE6"/>
<path d="M241.5 58.4056V47.4091H273.355V58.4056H241.5Z" fill="#E0EFE6"/>
<path d="M278.493 58.4056V47.4091H310.349V58.4056H278.493Z" fill="#E0EFE6"/>
<path d="M315.487 58.4056V47.4091H347.342V58.4056H315.487Z" fill="#E0EFE6"/>
<path fill-rule="evenodd" clip-rule="evenodd" d="M678.294 104.25C706.225 104.25 728.867 82.1248 728.867 54.8317C728.867 27.5385 706.225 5.41306 678.294 5.41306C650.363 5.41306 627.721 27.5385 627.721 54.8317C627.721 82.1248 650.363 104.25 678.294 104.25ZM678.294 113.663C711.545 113.663 738.5 87.3235 738.5 54.8317C738.5 22.3398 711.545 -4 678.294 -4C645.043 -4 618.088 22.3398 618.088 54.8317C618.088 87.3235 645.043 113.663 678.294 113.663Z" fill="#E0EFE6"/>
<path d="M657.95 86.1719V23.4914H678.43C686.579 23.4914 692.717 25.1504 696.845 28.4685C700.973 31.6829 703.036 36.5045 703.036 42.9332C703.036 46.9771 702.19 50.6063 700.496 53.8207C698.803 57.035 696.104 59.5754 692.4 61.4419C688.696 63.2046 683.774 64.0859 677.636 64.0859H672.238V86.1719H657.95ZM672.238 52.7319H676.366C679.012 52.7319 681.234 52.4208 683.033 51.7987C684.833 51.1766 686.156 50.1915 687.002 48.8436C687.955 47.3919 688.431 45.5255 688.431 43.2443C688.431 40.6521 687.531 38.5783 685.732 37.0229C684.039 35.4676 681.393 34.6899 677.795 34.6899H672.238V52.7319Z" fill="#E0EFE6"/>
<path d="M498.5 58.4056V47.4091H530.355V58.4056H498.5Z" fill="#E0EFE6"/>
<path d="M535.493 58.4056V47.4091H567.349V58.4056H535.493Z" fill="#E0EFE6"/>
<path d="M572.487 58.4056V47.4091H604.342V58.4056H572.487Z" fill="#E0EFE6"/>
<path fill-rule="evenodd" clip-rule="evenodd" d="M935.294 104.25C963.224 104.25 985.867 82.1248 985.867 54.8317C985.867 27.5385 963.224 5.41306 935.294 5.41306C907.363 5.41306 884.72 27.5385 884.72 54.8317C884.72 82.1248 907.363 104.25 935.294 104.25ZM935.294 113.663C968.545 113.663 995.5 87.3235 995.5 54.8317C995.5 22.3398 968.545 -4 935.294 -4C902.043 -4 875.087 22.3398 875.087 54.8317C875.087 87.3235 902.043 113.663 935.294 113.663Z" fill="#E0EFE6"/>
<path d="M914.95 86.1719V23.4914H935.43C943.579 23.4914 949.717 25.1504 953.845 28.4685C957.973 31.6829 960.036 36.5045 960.036 42.9332C960.036 46.9771 959.19 50.6063 957.496 53.8207C955.803 57.035 953.104 59.5754 949.4 61.4419C945.696 63.2046 940.774 64.0859 934.636 64.0859H929.238V86.1719H914.95ZM929.238 52.7319H933.366C936.012 52.7319 938.234 52.4208 940.033 51.7987C941.833 51.1766 943.156 50.1915 944.002 48.8436C944.955 47.3919 945.431 45.5255 945.431 43.2443C945.431 40.6521 944.531 38.5783 942.732 37.0229C941.039 35.4676 938.393 34.6899 934.795 34.6899H929.238V52.7319Z" fill="#E0EFE6"/>
<path d="M755.5 58.4056V47.4091H787.355V58.4056H755.5Z" fill="#E0EFE6"/>
<path d="M792.493 58.4056V47.4091H824.349V58.4056H792.493Z" fill="#E0EFE6"/>
<path d="M829.487 58.4056V47.4091H861.342V58.4056H829.487Z" fill="#E0EFE6"/>
<path fill-rule="evenodd" clip-rule="evenodd" d="M35.7938 238.914C63.7246 238.914 86.367 216.788 86.367 189.495C86.367 162.202 63.7246 140.076 35.7938 140.076C7.86294 140.076 -14.7795 162.202 -14.7795 189.495C-14.7795 216.788 7.86294 238.914 35.7938 238.914ZM35.7938 248.327C69.0448 248.327 96 221.987 96 189.495C96 157.003 69.0448 130.663 35.7938 130.663C2.54278 130.663 -24.4125 157.003 -24.4125 189.495C-24.4125 221.987 2.54278 248.327 35.7938 248.327Z" fill="#E0EFE6"/>
<path d="M15.4507 220.835V158.155H35.9299C44.0792 158.155 50.2177 159.814 54.3453 163.132C58.4728 166.346 60.5366 171.168 60.5366 177.597C60.5366 181.641 59.6899 185.27 57.9966 188.484C56.3032 191.698 53.6044 194.239 49.9002 196.105C46.1959 197.868 41.2746 198.749 35.1361 198.749H29.7385V220.835H15.4507ZM29.7385 187.395H33.8661C36.512 187.395 38.7345 187.084 40.5337 186.462C42.3329 185.84 43.6559 184.855 44.5025 183.507C45.4551 182.055 45.9313 180.189 45.9313 177.908C45.9313 175.315 45.0317 173.242 43.2325 171.686C41.5392 170.131 38.8933 169.353 35.2949 169.353H29.7385V187.395Z" fill="#E0EFE6"/>
<path fill-rule="evenodd" clip-rule="evenodd" d="M292.794 238.914C320.725 238.914 343.367 216.788 343.367 189.495C343.367 162.202 320.725 140.076 292.794 140.076C264.863 140.076 242.221 162.202 242.221 189.495C242.221 216.788 264.863 238.914 292.794 238.914ZM292.794 248.327C326.045 248.327 353 221.987 353 189.495C353 157.003 326.045 130.663 292.794 130.663C259.543 130.663 232.588 157.003 232.588 189.495C232.588 221.987 259.543 248.327 292.794 248.327Z" fill="#E0EFE6"/>
<path d="M272.45 220.835V158.155H292.93C301.079 158.155 307.217 159.814 311.345 163.132C315.473 166.346 317.536 171.168 317.536 177.597C317.536 181.641 316.69 185.27 314.996 188.484C313.303 191.698 310.604 194.239 306.9 196.105C303.196 197.868 298.274 198.749 292.136 198.749H286.738V220.835H272.45ZM286.738 187.395H290.866C293.512 187.395 295.734 187.084 297.533 186.462C299.333 185.84 300.656 184.855 301.502 183.507C302.455 182.055 302.931 180.189 302.931 177.908C302.931 175.315 302.031 173.242 300.232 171.686C298.539 170.131 295.893 169.353 292.295 169.353H286.738V187.395Z" fill="#E0EFE6"/>
<path d="M113 193.069V182.072H144.855V193.069H113Z" fill="#E0EFE6"/>
<path d="M149.993 193.069V182.072H181.849V193.069H149.993Z" fill="#E0EFE6"/>
<path d="M186.987 193.069V182.072H218.842V193.069H186.987Z" fill="#E0EFE6"/>
<path fill-rule="evenodd" clip-rule="evenodd" d="M549.794 238.914C577.725 238.914 600.367 216.788 600.367 189.495C600.367 162.202 577.725 140.076 549.794 140.076C521.863 140.076 499.221 162.202 499.221 189.495C499.221 216.788 521.863 238.914 549.794 238.914ZM549.794 248.327C583.045 248.327 610 221.987 610 189.495C610 157.003 583.045 130.663 549.794 130.663C516.543 130.663 489.588 157.003 489.588 189.495C489.588 221.987 516.543 248.327 549.794 248.327Z" fill="#E0EFE6"/>
<path d="M529.45 220.835V158.155H549.93C558.079 158.155 564.217 159.814 568.345 163.132C572.473 166.346 574.536 171.168 574.536 177.597C574.536 181.641 573.69 185.27 571.996 188.484C570.303 191.698 567.604 194.239 563.9 196.105C560.196 197.868 555.274 198.749 549.136 198.749H543.738V220.835H529.45ZM543.738 187.395H547.866C550.512 187.395 552.734 187.084 554.533 186.462C556.333 185.84 557.656 184.855 558.502 183.507C559.455 182.055 559.931 180.189 559.931 177.908C559.931 175.315 559.031 173.242 557.232 171.686C555.539 170.131 552.893 169.353 549.295 169.353H543.738V187.395Z" fill="#E0EFE6"/>
<path d="M370 193.069V182.072H401.855V193.069H370Z" fill="#E0EFE6"/>
<path d="M406.993 193.069V182.072H438.849V193.069H406.993Z" fill="#E0EFE6"/>
<path d="M443.987 193.069V182.072H475.842V193.069H443.987Z" fill="#E0EFE6"/>
<path fill-rule="evenodd" clip-rule="evenodd" d="M806.794 238.914C834.724 238.914 857.367 216.788 857.367 189.495C857.367 162.202 834.724 140.076 806.794 140.076C778.863 140.076 756.22 162.202 756.22 189.495C756.22 216.788 778.863 238.914 806.794 238.914ZM806.794 248.327C840.045 248.327 867 221.987 867 189.495C867 157.003 840.045 130.663 806.794 130.663C773.543 130.663 746.587 157.003 746.587 189.495C746.587 221.987 773.543 248.327 806.794 248.327Z" fill="#E0EFE6"/>
<path d="M786.45 220.835V158.155H806.93C815.079 158.155 821.217 159.814 825.345 163.132C829.473 166.346 831.536 171.168 831.536 177.597C831.536 181.641 830.69 185.27 828.996 188.484C827.303 191.698 824.604 194.239 820.9 196.105C817.196 197.868 812.274 198.749 806.136 198.749H800.738V220.835H786.45ZM800.738 187.395H804.866C807.512 187.395 809.734 187.084 811.533 186.462C813.333 185.84 814.656 184.855 815.502 183.507C816.455 182.055 816.931 180.189 816.931 177.908C816.931 175.315 816.031 173.242 814.232 171.686C812.539 170.131 809.893 169.353 806.295 169.353H800.738V187.395Z" fill="#E0EFE6"/>
<path d="M627 193.069V182.072H658.855V193.069H627Z" fill="#E0EFE6"/>
<path d="M663.993 193.069V182.072H695.849V193.069H663.993Z" fill="#E0EFE6"/>
<path d="M700.987 193.069V182.072H732.842V193.069H700.987Z" fill="#E0EFE6"/>
<path d="M884 193.069V182.072H915.855V193.069H884Z" fill="#E0EFE6"/>
<path d="M920.993 193.069V182.072H952.849V193.069H920.993Z" fill="#E0EFE6"/>
<path d="M957.987 193.069V182.072H989.842V193.069H957.987Z" fill="#E0EFE6"/>
</g>
<g opacity="0.4">
<path fill-rule="evenodd" clip-rule="evenodd" d="M164.294 356.25C192.225 356.25 214.867 334.125 214.867 306.832C214.867 279.539 192.225 257.413 164.294 257.413C136.363 257.413 113.721 279.539 113.721 306.832C113.721 334.125 136.363 356.25 164.294 356.25ZM164.294 365.663C197.545 365.663 224.5 339.323 224.5 306.832C224.5 274.34 197.545 248 164.294 248C131.043 248 104.088 274.34 104.088 306.832C104.088 339.323 131.043 365.663 164.294 365.663Z" fill="#E0EFE6"/>
<path d="M143.951 338.172V275.491H164.43C172.579 275.491 178.718 277.15 182.845 280.469C186.973 283.683 189.037 288.504 189.037 294.933C189.037 298.977 188.19 302.606 186.496 305.821C184.803 309.035 182.104 311.575 178.4 313.442C174.696 315.205 169.774 316.086 163.636 316.086H158.238V338.172H143.951ZM158.238 304.732H162.366C165.012 304.732 167.234 304.421 169.034 303.799C170.833 303.177 172.156 302.192 173.002 300.844C173.955 299.392 174.431 297.525 174.431 295.244C174.431 292.652 173.532 290.578 171.732 289.023C170.039 287.468 167.393 286.69 163.795 286.69H158.238V304.732Z" fill="#E0EFE6"/>
<path d="M-15.5 310.406V299.409H16.3551V310.406H-15.5Z" fill="#E0EFE6"/>
<path d="M21.4935 310.406V299.409H53.3486V310.406H21.4935Z" fill="#E0EFE6"/>
<path d="M58.4869 310.406V299.409H90.342V310.406H58.4869Z" fill="#E0EFE6"/>
<path fill-rule="evenodd" clip-rule="evenodd" d="M421.294 356.25C449.225 356.25 471.867 334.125 471.867 306.832C471.867 279.539 449.225 257.413 421.294 257.413C393.363 257.413 370.721 279.539 370.721 306.832C370.721 334.125 393.363 356.25 421.294 356.25ZM421.294 365.663C454.545 365.663 481.5 339.323 481.5 306.832C481.5 274.34 454.545 248 421.294 248C388.043 248 361.088 274.34 361.088 306.832C361.088 339.323 388.043 365.663 421.294 365.663Z" fill="#E0EFE6"/>
<path d="M400.95 338.172V275.491H421.43C429.579 275.491 435.717 277.15 439.845 280.469C443.973 283.683 446.036 288.504 446.036 294.933C446.036 298.977 445.19 302.606 443.496 305.821C441.803 309.035 439.104 311.575 435.4 313.442C431.696 315.205 426.774 316.086 420.636 316.086H415.238V338.172H400.95ZM415.238 304.732H419.366C422.012 304.732 424.234 304.421 426.033 303.799C427.833 303.177 429.156 302.192 430.002 300.844C430.955 299.392 431.431 297.525 431.431 295.244C431.431 292.652 430.531 290.578 428.732 289.023C427.039 287.468 424.393 286.69 420.795 286.69H415.238V304.732Z" fill="#E0EFE6"/>
<path d="M241.5 310.406V299.409H273.355V310.406H241.5Z" fill="#E0EFE6"/>
<path d="M278.493 310.406V299.409H310.349V310.406H278.493Z" fill="#E0EFE6"/>
<path d="M315.487 310.406V299.409H347.342V310.406H315.487Z" fill="#E0EFE6"/>
<path fill-rule="evenodd" clip-rule="evenodd" d="M678.294 356.25C706.225 356.25 728.867 334.125 728.867 306.832C728.867 279.539 706.225 257.413 678.294 257.413C650.363 257.413 627.721 279.539 627.721 306.832C627.721 334.125 650.363 356.25 678.294 356.25ZM678.294 365.663C711.545 365.663 738.5 339.323 738.5 306.832C738.5 274.34 711.545 248 678.294 248C645.043 248 618.088 274.34 618.088 306.832C618.088 339.323 645.043 365.663 678.294 365.663Z" fill="#E0EFE6"/>
<path d="M657.95 338.172V275.491H678.43C686.579 275.491 692.717 277.15 696.845 280.469C700.973 283.683 703.036 288.504 703.036 294.933C703.036 298.977 702.19 302.606 700.496 305.821C698.803 309.035 696.104 311.575 692.4 313.442C688.696 315.205 683.774 316.086 677.636 316.086H672.238V338.172H657.95ZM672.238 304.732H676.366C679.012 304.732 681.234 304.421 683.033 303.799C684.833 303.177 686.156 302.192 687.002 300.844C687.955 299.392 688.431 297.525 688.431 295.244C688.431 292.652 687.531 290.578 685.732 289.023C684.039 287.468 681.393 286.69 677.795 286.69H672.238V304.732Z" fill="#E0EFE6"/>
<path d="M498.5 310.406V299.409H530.355V310.406H498.5Z" fill="#E0EFE6"/>
<path d="M535.493 310.406V299.409H567.349V310.406H535.493Z" fill="#E0EFE6"/>
<path d="M572.487 310.406V299.409H604.342V310.406H572.487Z" fill="#E0EFE6"/>
<path fill-rule="evenodd" clip-rule="evenodd" d="M935.294 356.25C963.224 356.25 985.867 334.125 985.867 306.832C985.867 279.539 963.224 257.413 935.294 257.413C907.363 257.413 884.72 279.539 884.72 306.832C884.72 334.125 907.363 356.25 935.294 356.25ZM935.294 365.663C968.545 365.663 995.5 339.323 995.5 306.832C995.5 274.34 968.545 248 935.294 248C902.043 248 875.087 274.34 875.087 306.832C875.087 339.323 902.043 365.663 935.294 365.663Z" fill="#E0EFE6"/>
<path d="M914.95 338.172V275.491H935.43C943.579 275.491 949.717 277.15 953.845 280.469C957.973 283.683 960.036 288.504 960.036 294.933C960.036 298.977 959.19 302.606 957.496 305.821C955.803 309.035 953.104 311.575 949.4 313.442C945.696 315.205 940.774 316.086 934.636 316.086H929.238V338.172H914.95ZM929.238 304.732H933.366C936.012 304.732 938.234 304.421 940.033 303.799C941.833 303.177 943.156 302.192 944.002 300.844C944.955 299.392 945.431 297.525 945.431 295.244C945.431 292.652 944.531 290.578 942.732 289.023C941.039 287.468 938.393 286.69 934.795 286.69H929.238V304.732Z" fill="#E0EFE6"/>
<path d="M755.5 310.406V299.409H787.355V310.406H755.5Z" fill="#E0EFE6"/>
<path d="M792.493 310.406V299.409H824.349V310.406H792.493Z" fill="#E0EFE6"/>
<path d="M829.487 310.406V299.409H861.342V310.406H829.487Z" fill="#E0EFE6"/>
<path fill-rule="evenodd" clip-rule="evenodd" d="M35.7938 490.914C63.7246 490.914 86.367 468.788 86.367 441.495C86.367 414.202 63.7246 392.076 35.7938 392.076C7.86294 392.076 -14.7795 414.202 -14.7795 441.495C-14.7795 468.788 7.86294 490.914 35.7938 490.914ZM35.7938 500.327C69.0448 500.327 96 473.987 96 441.495C96 409.003 69.0448 382.663 35.7938 382.663C2.54278 382.663 -24.4125 409.003 -24.4125 441.495C-24.4125 473.987 2.54278 500.327 35.7938 500.327Z" fill="#E0EFE6"/>
<path d="M15.4507 472.835V410.155H35.9299C44.0792 410.155 50.2177 411.814 54.3453 415.132C58.4728 418.346 60.5366 423.168 60.5366 429.597C60.5366 433.641 59.6899 437.27 57.9966 440.484C56.3032 443.698 53.6044 446.239 49.9002 448.105C46.1959 449.868 41.2746 450.749 35.1361 450.749H29.7385V472.835H15.4507ZM29.7385 439.395H33.8661C36.512 439.395 38.7345 439.084 40.5337 438.462C42.3329 437.84 43.6559 436.855 44.5025 435.507C45.4551 434.055 45.9313 432.189 45.9313 429.908C45.9313 427.315 45.0317 425.242 43.2325 423.686C41.5392 422.131 38.8933 421.353 35.2949 421.353H29.7385V439.395Z" fill="#E0EFE6"/>
<path fill-rule="evenodd" clip-rule="evenodd" d="M292.794 490.914C320.725 490.914 343.367 468.788 343.367 441.495C343.367 414.202 320.725 392.076 292.794 392.076C264.863 392.076 242.221 414.202 242.221 441.495C242.221 468.788 264.863 490.914 292.794 490.914ZM292.794 500.327C326.045 500.327 353 473.987 353 441.495C353 409.003 326.045 382.663 292.794 382.663C259.543 382.663 232.588 409.003 232.588 441.495C232.588 473.987 259.543 500.327 292.794 500.327Z" fill="#E0EFE6"/>
<path d="M272.45 472.835V410.155H292.93C301.079 410.155 307.217 411.814 311.345 415.132C315.473 418.346 317.536 423.168 317.536 429.597C317.536 433.641 316.69 437.27 314.996 440.484C313.303 443.698 310.604 446.239 306.9 448.105C303.196 449.868 298.274 450.749 292.136 450.749H286.738V472.835H272.45ZM286.738 439.395H290.866C293.512 439.395 295.734 439.084 297.533 438.462C299.333 437.84 300.656 436.855 301.502 435.507C302.455 434.055 302.931 432.189 302.931 429.908C302.931 427.315 302.031 425.242 300.232 423.686C298.539 422.131 295.893 421.353 292.295 421.353H286.738V439.395Z" fill="#E0EFE6"/>
<path d="M113 445.069V434.072H144.855V445.069H113Z" fill="#E0EFE6"/>
<path d="M149.993 445.069V434.072H181.849V445.069H149.993Z" fill="#E0EFE6"/>
<path d="M186.987 445.069V434.072H218.842V445.069H186.987Z" fill="#E0EFE6"/>
<path fill-rule="evenodd" clip-rule="evenodd" d="M549.794 490.914C577.725 490.914 600.367 468.788 600.367 441.495C600.367 414.202 577.725 392.076 549.794 392.076C521.863 392.076 499.221 414.202 499.221 441.495C499.221 468.788 521.863 490.914 549.794 490.914ZM549.794 500.327C583.045 500.327 610 473.987 610 441.495C610 409.003 583.045 382.663 549.794 382.663C516.543 382.663 489.588 409.003 489.588 441.495C489.588 473.987 516.543 500.327 549.794 500.327Z" fill="#E0EFE6"/>
<path d="M529.45 472.835V410.155H549.93C558.079 410.155 564.217 411.814 568.345 415.132C572.473 418.346 574.536 423.168 574.536 429.597C574.536 433.641 573.69 437.27 571.996 440.484C570.303 443.698 567.604 446.239 563.9 448.105C560.196 449.868 555.274 450.749 549.136 450.749H543.738V472.835H529.45ZM543.738 439.395H547.866C550.512 439.395 552.734 439.084 554.533 438.462C556.333 437.84 557.656 436.855 558.502 435.507C559.455 434.055 559.931 432.189 559.931 429.908C559.931 427.315 559.031 425.242 557.232 423.686C555.539 422.131 552.893 421.353 549.295 421.353H543.738V439.395Z" fill="#E0EFE6"/>
<path d="M370 445.069V434.072H401.855V445.069H370Z" fill="#E0EFE6"/>
<path d="M406.993 445.069V434.072H438.849V445.069H406.993Z" fill="#E0EFE6"/>
<path d="M443.987 445.069V434.072H475.842V445.069H443.987Z" fill="#E0EFE6"/>
<path fill-rule="evenodd" clip-rule="evenodd" d="M806.794 490.914C834.724 490.914 857.367 468.788 857.367 441.495C857.367 414.202 834.724 392.076 806.794 392.076C778.863 392.076 756.22 414.202 756.22 441.495C756.22 468.788 778.863 490.914 806.794 490.914ZM806.794 500.327C840.045 500.327 867 473.987 867 441.495C867 409.003 840.045 382.663 806.794 382.663C773.543 382.663 746.587 409.003 746.587 441.495C746.587 473.987 773.543 500.327 806.794 500.327Z" fill="#E0EFE6"/>
<path d="M786.45 472.835V410.155H806.93C815.079 410.155 821.217 411.814 825.345 415.132C829.473 418.346 831.536 423.168 831.536 429.597C831.536 433.641 830.69 437.27 828.996 440.484C827.303 443.698 824.604 446.239 820.9 448.105C817.196 449.868 812.274 450.749 806.136 450.749H800.738V472.835H786.45ZM800.738 439.395H804.866C807.512 439.395 809.734 439.084 811.533 438.462C813.333 437.84 814.656 436.855 815.502 435.507C816.455 434.055 816.931 432.189 816.931 429.908C816.931 427.315 816.031 425.242 814.232 423.686C812.539 422.131 809.893 421.353 806.295 421.353H800.738V439.395Z" fill="#E0EFE6"/>
<path d="M627 445.069V434.072H658.855V445.069H627Z" fill="#E0EFE6"/>
<path d="M663.993 445.069V434.072H695.849V445.069H663.993Z" fill="#E0EFE6"/>
<path d="M700.987 445.069V434.072H732.842V445.069H700.987Z" fill="#E0EFE6"/>
<path d="M884 445.069V434.072H915.855V445.069H884Z" fill="#E0EFE6"/>
<path d="M920.993 445.069V434.072H952.849V445.069H920.993Z" fill="#E0EFE6"/>
<path d="M957.987 445.069V434.072H989.842V445.069H957.987Z" fill="#E0EFE6"/>
</g>
<g opacity="0.4">
<path fill-rule="evenodd" clip-rule="evenodd" d="M164.294 608.25C192.225 608.25 214.867 586.125 214.867 558.832C214.867 531.539 192.225 509.413 164.294 509.413C136.363 509.413 113.721 531.539 113.721 558.832C113.721 586.125 136.363 608.25 164.294 608.25ZM164.294 617.663C197.545 617.663 224.5 591.323 224.5 558.832C224.5 526.34 197.545 500 164.294 500C131.043 500 104.088 526.34 104.088 558.832C104.088 591.323 131.043 617.663 164.294 617.663Z" fill="#E0EFE6"/>
<path d="M143.951 590.172V527.491H164.43C172.579 527.491 178.718 529.15 182.845 532.469C186.973 535.683 189.037 540.505 189.037 546.933C189.037 550.977 188.19 554.606 186.496 557.821C184.803 561.035 182.104 563.576 178.4 565.442C174.696 567.205 169.774 568.086 163.636 568.086H158.238V590.172H143.951ZM158.238 556.732H162.366C165.012 556.732 167.234 556.421 169.034 555.799C170.833 555.177 172.156 554.192 173.002 552.844C173.955 551.392 174.431 549.526 174.431 547.244C174.431 544.652 173.532 542.578 171.732 541.023C170.039 539.468 167.393 538.69 163.795 538.69H158.238V556.732Z" fill="#E0EFE6"/>
<path d="M-15.5 562.406V551.409H16.3551V562.406H-15.5Z" fill="#E0EFE6"/>
<path d="M21.4935 562.406V551.409H53.3486V562.406H21.4935Z" fill="#E0EFE6"/>
<path d="M58.4869 562.406V551.409H90.342V562.406H58.4869Z" fill="#E0EFE6"/>
<path fill-rule="evenodd" clip-rule="evenodd" d="M421.294 608.25C449.225 608.25 471.867 586.125 471.867 558.832C471.867 531.539 449.225 509.413 421.294 509.413C393.363 509.413 370.721 531.539 370.721 558.832C370.721 586.125 393.363 608.25 421.294 608.25ZM421.294 617.663C454.545 617.663 481.5 591.323 481.5 558.832C481.5 526.34 454.545 500 421.294 500C388.043 500 361.088 526.34 361.088 558.832C361.088 591.323 388.043 617.663 421.294 617.663Z" fill="#E0EFE6"/>
<path d="M400.95 590.172V527.491H421.43C429.579 527.491 435.717 529.15 439.845 532.469C443.973 535.683 446.036 540.505 446.036 546.933C446.036 550.977 445.19 554.606 443.496 557.821C441.803 561.035 439.104 563.576 435.4 565.442C431.696 567.205 426.774 568.086 420.636 568.086H415.238V590.172H400.95ZM415.238 556.732H419.366C422.012 556.732 424.234 556.421 426.033 555.799C427.833 555.177 429.156 554.192 430.002 552.844C430.955 551.392 431.431 549.526 431.431 547.244C431.431 544.652 430.531 542.578 428.732 541.023C427.039 539.468 424.393 538.69 420.795 538.69H415.238V556.732Z" fill="#E0EFE6"/>
<path d="M241.5 562.406V551.409H273.355V562.406H241.5Z" fill="#E0EFE6"/>
<path d="M278.493 562.406V551.409H310.349V562.406H278.493Z" fill="#E0EFE6"/>
<path d="M315.487 562.406V551.409H347.342V562.406H315.487Z" fill="#E0EFE6"/>
<path fill-rule="evenodd" clip-rule="evenodd" d="M678.294 608.25C706.225 608.25 728.867 586.125 728.867 558.832C728.867 531.539 706.225 509.413 678.294 509.413C650.363 509.413 627.721 531.539 627.721 558.832C627.721 586.125 650.363 608.25 678.294 608.25ZM678.294 617.663C711.545 617.663 738.5 591.323 738.5 558.832C738.5 526.34 711.545 500 678.294 500C645.043 500 618.088 526.34 618.088 558.832C618.088 591.323 645.043 617.663 678.294 617.663Z" fill="#E0EFE6"/>
<path d="M657.95 590.172V527.491H678.43C686.579 527.491 692.717 529.15 696.845 532.469C700.973 535.683 703.036 540.505 703.036 546.933C703.036 550.977 702.19 554.606 700.496 557.821C698.803 561.035 696.104 563.576 692.4 565.442C688.696 567.205 683.774 568.086 677.636 568.086H672.238V590.172H657.95ZM672.238 556.732H676.366C679.012 556.732 681.234 556.421 683.033 555.799C684.833 555.177 686.156 554.192 687.002 552.844C687.955 551.392 688.431 549.526 688.431 547.244C688.431 544.652 687.531 542.578 685.732 541.023C684.039 539.468 681.393 538.69 677.795 538.69H672.238V556.732Z" fill="#E0EFE6"/>
<path d="M498.5 562.406V551.409H530.355V562.406H498.5Z" fill="#E0EFE6"/>
<path d="M535.493 562.406V551.409H567.349V562.406H535.493Z" fill="#E0EFE6"/>
<path d="M572.487 562.406V551.409H604.342V562.406H572.487Z" fill="#E0EFE6"/>
<path fill-rule="evenodd" clip-rule="evenodd" d="M935.294 608.25C963.224 608.25 985.867 586.125 985.867 558.832C985.867 531.539 963.224 509.413 935.294 509.413C907.363 509.413 884.72 531.539 884.72 558.832C884.72 586.125 907.363 608.25 935.294 608.25ZM935.294 617.663C968.545 617.663 995.5 591.323 995.5 558.832C995.5 526.34 968.545 500 935.294 500C902.043 500 875.087 526.34 875.087 558.832C875.087 591.323 902.043 617.663 935.294 617.663Z" fill="#E0EFE6"/>
<path d="M914.95 590.172V527.491H935.43C943.579 527.491 949.717 529.15 953.845 532.469C957.973 535.683 960.036 540.505 960.036 546.933C960.036 550.977 959.19 554.606 957.496 557.821C955.803 561.035 953.104 563.576 949.4 565.442C945.696 567.205 940.774 568.086 934.636 568.086H929.238V590.172H914.95ZM929.238 556.732H933.366C936.012 556.732 938.234 556.421 940.033 555.799C941.833 555.177 943.156 554.192 944.002 552.844C944.955 551.392 945.431 549.526 945.431 547.244C945.431 544.652 944.531 542.578 942.732 541.023C941.039 539.468 938.393 538.69 934.795 538.69H929.238V556.732Z" fill="#E0EFE6"/>
<path d="M755.5 562.406V551.409H787.355V562.406H755.5Z" fill="#E0EFE6"/>
<path d="M792.493 562.406V551.409H824.349V562.406H792.493Z" fill="#E0EFE6"/>
<path d="M829.487 562.406V551.409H861.342V562.406H829.487Z" fill="#E0EFE6"/>
<path fill-rule="evenodd" clip-rule="evenodd" d="M35.7938 742.914C63.7246 742.914 86.367 720.788 86.367 693.495C86.367 666.202 63.7246 644.076 35.7938 644.076C7.86294 644.076 -14.7795 666.202 -14.7795 693.495C-14.7795 720.788 7.86294 742.914 35.7938 742.914ZM35.7938 752.327C69.0448 752.327 96 725.987 96 693.495C96 661.003 69.0448 634.663 35.7938 634.663C2.54278 634.663 -24.4125 661.003 -24.4125 693.495C-24.4125 725.987 2.54278 752.327 35.7938 752.327Z" fill="#E0EFE6"/>
<path d="M15.4507 724.835V662.155H35.9299C44.0792 662.155 50.2177 663.814 54.3453 667.132C58.4728 670.346 60.5366 675.168 60.5366 681.597C60.5366 685.641 59.6899 689.27 57.9966 692.484C56.3032 695.698 53.6044 698.239 49.9002 700.105C46.1959 701.868 41.2746 702.749 35.1361 702.749H29.7385V724.835H15.4507ZM29.7385 691.395H33.8661C36.512 691.395 38.7345 691.084 40.5337 690.462C42.3329 689.84 43.6559 688.855 44.5025 687.507C45.4551 686.055 45.9313 684.189 45.9313 681.908C45.9313 679.315 45.0317 677.242 43.2325 675.686C41.5392 674.131 38.8933 673.353 35.2949 673.353H29.7385V691.395Z" fill="#E0EFE6"/>
<path fill-rule="evenodd" clip-rule="evenodd" d="M292.794 742.914C320.725 742.914 343.367 720.788 343.367 693.495C343.367 666.202 320.725 644.076 292.794 644.076C264.863 644.076 242.221 666.202 242.221 693.495C242.221 720.788 264.863 742.914 292.794 742.914ZM292.794 752.327C326.045 752.327 353 725.987 353 693.495C353 661.003 326.045 634.663 292.794 634.663C259.543 634.663 232.588 661.003 232.588 693.495C232.588 725.987 259.543 752.327 292.794 752.327Z" fill="#E0EFE6"/>
<path d="M272.45 724.835V662.155H292.93C301.079 662.155 307.217 663.814 311.345 667.132C315.473 670.346 317.536 675.168 317.536 681.597C317.536 685.641 316.69 689.27 314.996 692.484C313.303 695.698 310.604 698.239 306.9 700.105C303.196 701.868 298.274 702.749 292.136 702.749H286.738V724.835H272.45ZM286.738 691.395H290.866C293.512 691.395 295.734 691.084 297.533 690.462C299.333 689.84 300.656 688.855 301.502 687.507C302.455 686.055 302.931 684.189 302.931 681.908C302.931 679.315 302.031 677.242 300.232 675.686C298.539 674.131 295.893 673.353 292.295 673.353H286.738V691.395Z" fill="#E0EFE6"/>
<path d="M113 697.069V686.072H144.855V697.069H113Z" fill="#E0EFE6"/>
<path d="M149.993 697.069V686.072H181.849V697.069H149.993Z" fill="#E0EFE6"/>
<path d="M186.987 697.069V686.072H218.842V697.069H186.987Z" fill="#E0EFE6"/>
<path fill-rule="evenodd" clip-rule="evenodd" d="M549.794 742.914C577.725 742.914 600.367 720.788 600.367 693.495C600.367 666.202 577.725 644.076 549.794 644.076C521.863 644.076 499.221 666.202 499.221 693.495C499.221 720.788 521.863 742.914 549.794 742.914ZM549.794 752.327C583.045 752.327 610 725.987 610 693.495C610 661.003 583.045 634.663 549.794 634.663C516.543 634.663 489.588 661.003 489.588 693.495C489.588 725.987 516.543 752.327 549.794 752.327Z" fill="#E0EFE6"/>
<path d="M529.45 724.835V662.155H549.93C558.079 662.155 564.217 663.814 568.345 667.132C572.473 670.346 574.536 675.168 574.536 681.597C574.536 685.641 573.69 689.27 571.996 692.484C570.303 695.698 567.604 698.239 563.9 700.105C560.196 701.868 555.274 702.749 549.136 702.749H543.738V724.835H529.45ZM543.738 691.395H547.866C550.512 691.395 552.734 691.084 554.533 690.462C556.333 689.84 557.656 688.855 558.502 687.507C559.455 686.055 559.931 684.189 559.931 681.908C559.931 679.315 559.031 677.242 557.232 675.686C555.539 674.131 552.893 673.353 549.295 673.353H543.738V691.395Z" fill="#E0EFE6"/>
<path d="M370 697.069V686.072H401.855V697.069H370Z" fill="#E0EFE6"/>
<path d="M406.993 697.069V686.072H438.849V697.069H406.993Z" fill="#E0EFE6"/>
<path d="M443.987 697.069V686.072H475.842V697.069H443.987Z" fill="#E0EFE6"/>
<path fill-rule="evenodd" clip-rule="evenodd" d="M806.794 742.914C834.724 742.914 857.367 720.788 857.367 693.495C857.367 666.202 834.724 644.076 806.794 644.076C778.863 644.076 756.22 666.202 756.22 693.495C756.22 720.788 778.863 742.914 806.794 742.914ZM806.794 752.327C840.045 752.327 867 725.987 867 693.495C867 661.003 840.045 634.663 806.794 634.663C773.543 634.663 746.587 661.003 746.587 693.495C746.587 725.987 773.543 752.327 806.794 752.327Z" fill="#E0EFE6"/>
<path d="M786.45 724.835V662.155H806.93C815.079 662.155 821.217 663.814 825.345 667.132C829.473 670.346 831.536 675.168 831.536 681.597C831.536 685.641 830.69 689.27 828.996 692.484C827.303 695.698 824.604 698.239 820.9 700.105C817.196 701.868 812.274 702.749 806.136 702.749H800.738V724.835H786.45ZM800.738 691.395H804.866C807.512 691.395 809.734 691.084 811.533 690.462C813.333 689.84 814.656 688.855 815.502 687.507C816.455 686.055 816.931 684.189 816.931 681.908C816.931 679.315 816.031 677.242 814.232 675.686C812.539 674.131 809.893 673.353 806.295 673.353H800.738V691.395Z" fill="#E0EFE6"/>
<path d="M627 697.069V686.072H658.855V697.069H627Z" fill="#E0EFE6"/>
<path d="M663.993 697.069V686.072H695.849V697.069H663.993Z" fill="#E0EFE6"/>
<path d="M700.987 697.069V686.072H732.842V697.069H700.987Z" fill="#E0EFE6"/>
<path d="M884 697.069V686.072H915.855V697.069H884Z" fill="#E0EFE6"/>
<path d="M920.993 697.069V686.072H952.849V697.069H920.993Z" fill="#E0EFE6"/>
<path d="M957.987 697.069V686.072H989.842V697.069H957.987Z" fill="#E0EFE6"/>
</g>
<g opacity="0.4">
<path fill-rule="evenodd" clip-rule="evenodd" d="M164.294 860.25C192.225 860.25 214.867 838.125 214.867 810.832C214.867 783.539 192.225 761.413 164.294 761.413C136.363 761.413 113.721 783.539 113.721 810.832C113.721 838.125 136.363 860.25 164.294 860.25ZM164.294 869.663C197.545 869.663 224.5 843.323 224.5 810.832C224.5 778.34 197.545 752 164.294 752C131.043 752 104.088 778.34 104.088 810.832C104.088 843.323 131.043 869.663 164.294 869.663Z" fill="#E0EFE6"/>
<path d="M143.951 842.172V779.491H164.43C172.579 779.491 178.718 781.15 182.845 784.469C186.973 787.683 189.037 792.505 189.037 798.933C189.037 802.977 188.19 806.606 186.496 809.821C184.803 813.035 182.104 815.576 178.4 817.442C174.696 819.205 169.774 820.086 163.636 820.086H158.238V842.172H143.951ZM158.238 808.732H162.366C165.012 808.732 167.234 808.421 169.034 807.799C170.833 807.177 172.156 806.192 173.002 804.844C173.955 803.392 174.431 801.526 174.431 799.244C174.431 796.652 173.532 794.578 171.732 793.023C170.039 791.468 167.393 790.69 163.795 790.69H158.238V808.732Z" fill="#E0EFE6"/>
<path d="M-15.5 814.406V803.409H16.3551V814.406H-15.5Z" fill="#E0EFE6"/>
<path d="M21.4935 814.406V803.409H53.3486V814.406H21.4935Z" fill="#E0EFE6"/>
<path d="M58.4869 814.406V803.409H90.342V814.406H58.4869Z" fill="#E0EFE6"/>
<path fill-rule="evenodd" clip-rule="evenodd" d="M421.294 860.25C449.225 860.25 471.867 838.125 471.867 810.832C471.867 783.539 449.225 761.413 421.294 761.413C393.363 761.413 370.721 783.539 370.721 810.832C370.721 838.125 393.363 860.25 421.294 860.25ZM421.294 869.663C454.545 869.663 481.5 843.323 481.5 810.832C481.5 778.34 454.545 752 421.294 752C388.043 752 361.088 778.34 361.088 810.832C361.088 843.323 388.043 869.663 421.294 869.663Z" fill="#E0EFE6"/>
<path d="M400.95 842.172V779.491H421.43C429.579 779.491 435.717 781.15 439.845 784.469C443.973 787.683 446.036 792.505 446.036 798.933C446.036 802.977 445.19 806.606 443.496 809.821C441.803 813.035 439.104 815.576 435.4 817.442C431.696 819.205 426.774 820.086 420.636 820.086H415.238V842.172H400.95ZM415.238 808.732H419.366C422.012 808.732 424.234 808.421 426.033 807.799C427.833 807.177 429.156 806.192 430.002 804.844C430.955 803.392 431.431 801.526 431.431 799.244C431.431 796.652 430.531 794.578 428.732 793.023C427.039 791.468 424.393 790.69 420.795 790.69H415.238V808.732Z" fill="#E0EFE6"/>
<path d="M241.5 814.406V803.409H273.355V814.406H241.5Z" fill="#E0EFE6"/>
<path d="M278.493 814.406V803.409H310.349V814.406H278.493Z" fill="#E0EFE6"/>
<path d="M315.487 814.406V803.409H347.342V814.406H315.487Z" fill="#E0EFE6"/>
<path fill-rule="evenodd" clip-rule="evenodd" d="M678.294 860.25C706.225 860.25 728.867 838.125 728.867 810.832C728.867 783.539 706.225 761.413 678.294 761.413C650.363 761.413 627.721 783.539 627.721 810.832C627.721 838.125 650.363 860.25 678.294 860.25ZM678.294 869.663C711.545 869.663 738.5 843.323 738.5 810.832C738.5 778.34 711.545 752 678.294 752C645.043 752 618.088 778.34 618.088 810.832C618.088 843.323 645.043 869.663 678.294 869.663Z" fill="#E0EFE6"/>
<path d="M657.95 842.172V779.491H678.43C686.579 779.491 692.717 781.15 696.845 784.469C700.973 787.683 703.036 792.505 703.036 798.933C703.036 802.977 702.19 806.606 700.496 809.821C698.803 813.035 696.104 815.576 692.4 817.442C688.696 819.205 683.774 820.086 677.636 820.086H672.238V842.172H657.95ZM672.238 808.732H676.366C679.012 808.732 681.234 808.421 683.033 807.799C684.833 807.177 686.156 806.192 687.002 804.844C687.955 803.392 688.431 801.526 688.431 799.244C688.431 796.652 687.531 794.578 685.732 793.023C684.039 791.468 681.393 790.69 677.795 790.69H672.238V808.732Z" fill="#E0EFE6"/>
<path d="M498.5 814.406V803.409H530.355V814.406H498.5Z" fill="#E0EFE6"/>
<path d="M535.493 814.406V803.409H567.349V814.406H535.493Z" fill="#E0EFE6"/>
<path d="M572.487 814.406V803.409H604.342V814.406H572.487Z" fill="#E0EFE6"/>
<path fill-rule="evenodd" clip-rule="evenodd" d="M935.294 860.25C963.224 860.25 985.867 838.125 985.867 810.832C985.867 783.539 963.224 761.413 935.294 761.413C907.363 761.413 884.72 783.539 884.72 810.832C884.72 838.125 907.363 860.25 935.294 860.25ZM935.294 869.663C968.545 869.663 995.5 843.323 995.5 810.832C995.5 778.34 968.545 752 935.294 752C902.043 752 875.087 778.34 875.087 810.832C875.087 843.323 902.043 869.663 935.294 869.663Z" fill="#E0EFE6"/>
<path d="M914.95 842.172V779.491H935.43C943.579 779.491 949.717 781.15 953.845 784.469C957.973 787.683 960.036 792.505 960.036 798.933C960.036 802.977 959.19 806.606 957.496 809.821C955.803 813.035 953.104 815.576 949.4 817.442C945.696 819.205 940.774 820.086 934.636 820.086H929.238V842.172H914.95ZM929.238 808.732H933.366C936.012 808.732 938.234 808.421 940.033 807.799C941.833 807.177 943.156 806.192 944.002 804.844C944.955 803.392 945.431 801.526 945.431 799.244C945.431 796.652 944.531 794.578 942.732 793.023C941.039 791.468 938.393 790.69 934.795 790.69H929.238V808.732Z" fill="#E0EFE6"/>
<path d="M755.5 814.406V803.409H787.355V814.406H755.5Z" fill="#E0EFE6"/>
<path d="M792.493 814.406V803.409H824.349V814.406H792.493Z" fill="#E0EFE6"/>
<path d="M829.487 814.406V803.409H861.342V814.406H829.487Z" fill="#E0EFE6"/>
<path fill-rule="evenodd" clip-rule="evenodd" d="M35.7938 994.914C63.7246 994.914 86.367 972.788 86.367 945.495C86.367 918.202 63.7246 896.076 35.7938 896.076C7.86294 896.076 -14.7795 918.202 -14.7795 945.495C-14.7795 972.788 7.86294 994.914 35.7938 994.914ZM35.7938 1004.33C69.0448 1004.33 96 977.987 96 945.495C96 913.003 69.0448 886.663 35.7938 886.663C2.54278 886.663 -24.4125 913.003 -24.4125 945.495C-24.4125 977.987 2.54278 1004.33 35.7938 1004.33Z" fill="#E0EFE6"/>
<path d="M15.4507 976.835V914.155H35.9299C44.0792 914.155 50.2177 915.814 54.3453 919.132C58.4728 922.346 60.5366 927.168 60.5366 933.597C60.5366 937.641 59.6899 941.27 57.9966 944.484C56.3032 947.698 53.6044 950.239 49.9002 952.105C46.1959 953.868 41.2746 954.749 35.1361 954.749H29.7385V976.835H15.4507ZM29.7385 943.395H33.8661C36.512 943.395 38.7345 943.084 40.5337 942.462C42.3329 941.84 43.6559 940.855 44.5025 939.507C45.4551 938.055 45.9313 936.189 45.9313 933.908C45.9313 931.315 45.0317 929.242 43.2325 927.686C41.5392 926.131 38.8933 925.353 35.2949 925.353H29.7385V943.395Z" fill="#E0EFE6"/>
<path fill-rule="evenodd" clip-rule="evenodd" d="M292.794 994.914C320.725 994.914 343.367 972.788 343.367 945.495C343.367 918.202 320.725 896.076 292.794 896.076C264.863 896.076 242.221 918.202 242.221 945.495C242.221 972.788 264.863 994.914 292.794 994.914ZM292.794 1004.33C326.045 1004.33 353 977.987 353 945.495C353 913.003 326.045 886.663 292.794 886.663C259.543 886.663 232.588 913.003 232.588 945.495C232.588 977.987 259.543 1004.33 292.794 1004.33Z" fill="#E0EFE6"/>
<path d="M272.45 976.835V914.155H292.93C301.079 914.155 307.217 915.814 311.345 919.132C315.473 922.346 317.536 927.168 317.536 933.597C317.536 937.641 316.69 941.27 314.996 944.484C313.303 947.698 310.604 950.239 306.9 952.105C303.196 953.868 298.274 954.749 292.136 954.749H286.738V976.835H272.45ZM286.738 943.395H290.866C293.512 943.395 295.734 943.084 297.533 942.462C299.333 941.84 300.656 940.855 301.502 939.507C302.455 938.055 302.931 936.189 302.931 933.908C302.931 931.315 302.031 929.242 300.232 927.686C298.539 926.131 295.893 925.353 292.295 925.353H286.738V943.395Z" fill="#E0EFE6"/>
<path d="M113 949.069V938.072H144.855V949.069H113Z" fill="#E0EFE6"/>
<path d="M149.993 949.069V938.072H181.849V949.069H149.993Z" fill="#E0EFE6"/>
<path d="M186.987 949.069V938.072H218.842V949.069H186.987Z" fill="#E0EFE6"/>
<path fill-rule="evenodd" clip-rule="evenodd" d="M549.794 994.914C577.725 994.914 600.367 972.788 600.367 945.495C600.367 918.202 577.725 896.076 549.794 896.076C521.863 896.076 499.221 918.202 499.221 945.495C499.221 972.788 521.863 994.914 549.794 994.914ZM549.794 1004.33C583.045 1004.33 610 977.987 610 945.495C610 913.003 583.045 886.663 549.794 886.663C516.543 886.663 489.588 913.003 489.588 945.495C489.588 977.987 516.543 1004.33 549.794 1004.33Z" fill="#E0EFE6"/>
<path d="M529.45 976.835V914.155H549.93C558.079 914.155 564.217 915.814 568.345 919.132C572.473 922.346 574.536 927.168 574.536 933.597C574.536 937.641 573.69 941.27 571.996 944.484C570.303 947.698 567.604 950.239 563.9 952.105C560.196 953.868 555.274 954.749 549.136 954.749H543.738V976.835H529.45ZM543.738 943.395H547.866C550.512 943.395 552.734 943.084 554.533 942.462C556.333 941.84 557.656 940.855 558.502 939.507C559.455 938.055 559.931 936.189 559.931 933.908C559.931 931.315 559.031 929.242 557.232 927.686C555.539 926.131 552.893 925.353 549.295 925.353H543.738V943.395Z" fill="#E0EFE6"/>
<path d="M370 949.069V938.072H401.855V949.069H370Z" fill="#E0EFE6"/>
<path d="M406.993 949.069V938.072H438.849V949.069H406.993Z" fill="#E0EFE6"/>
<path d="M443.987 949.069V938.072H475.842V949.069H443.987Z" fill="#E0EFE6"/>
<path fill-rule="evenodd" clip-rule="evenodd" d="M806.794 994.914C834.724 994.914 857.367 972.788 857.367 945.495C857.367 918.202 834.724 896.076 806.794 896.076C778.863 896.076 756.22 918.202 756.22 945.495C756.22 972.788 778.863 994.914 806.794 994.914ZM806.794 1004.33C840.045 1004.33 867 977.987 867 945.495C867 913.003 840.045 886.663 806.794 886.663C773.543 886.663 746.587 913.003 746.587 945.495C746.587 977.987 773.543 1004.33 806.794 1004.33Z" fill="#E0EFE6"/>
<path d="M786.45 976.835V914.155H806.93C815.079 914.155 821.217 915.814 825.345 919.132C829.473 922.346 831.536 927.168 831.536 933.597C831.536 937.641 830.69 941.27 828.996 944.484C827.303 947.698 824.604 950.239 820.9 952.105C817.196 953.868 812.274 954.749 806.136 954.749H800.738V976.835H786.45ZM800.738 943.395H804.866C807.512 943.395 809.734 943.084 811.533 942.462C813.333 941.84 814.656 940.855 815.502 939.507C816.455 938.055 816.931 936.189 816.931 933.908C816.931 931.315 816.031 929.242 814.232 927.686C812.539 926.131 809.893 925.353 806.295 925.353H800.738V943.395Z" fill="#E0EFE6"/>
<path d="M627 949.069V938.072H658.855V949.069H627Z" fill="#E0EFE6"/>
<path d="M663.993 949.069V938.072H695.849V949.069H663.993Z" fill="#E0EFE6"/>
<path d="M700.987 949.069V938.072H732.842V949.069H700.987Z" fill="#E0EFE6"/>
<path d="M884 949.069V938.072H915.855V949.069H884Z" fill="#E0EFE6"/>
<path d="M920.993 949.069V938.072H952.849V949.069H920.993Z" fill="#E0EFE6"/>
<path d="M957.987 949.069V938.072H989.842V949.069H957.987Z" fill="#E0EFE6"/>
</g>
</g>
<defs>
<clipPath id="clip0_476_9923">
<rect width="1000" height="1000" fill="white"/>
</clipPath>
</defs>
</svg>
